<svg xmlns="http://www.w3.org/2000/svg" viewBox="0 0 25 24.91"><defs><style>.cls-1{fill:#2b2b2b;}.cls-2{fill:#404040;}.cls-3{fill:#3f3f3f;}.cls-4{fill:#454545;}.cls-5{fill:#252525;}.cls-6{fill:#373636;}.cls-7{fill:#282727;}.cls-8{fill:#414040;}.cls-9{fill:#292929;}.cls-10{fill:#363636;}.cls-11{fill:#373736;}.cls-12{fill:#313131;}.cls-13{fill:#6f6e6e;}.cls-14{fill:#262727;}.cls-15{fill:#434343;}.cls-16{fill:#313130;}.cls-17{fill:#2f2f2f;}.cls-18{fill:#373737;}.cls-19{fill:#30302f;}.cls-20{fill:#2a2a2a;}.cls-21{fill:#2d2d2c;}.cls-22{fill:#1e1e1e;}.cls-23{fill:#3d3d3c;}.cls-24{fill:#2a2929;}.cls-25{fill:#3e3e3e;}.cls-26{fill:#202020;}.cls-27{fill:#262625;}.cls-28{fill:#212120;}.cls-29{fill:#222121;}.cls-30{fill:#414141;}.cls-31{fill:#1a1a1a;}.cls-32{fill:#2d2e2e;}.cls-33{fill:#4e4d4d;}.cls-34{fill:#171717;}.cls-35{fill:#1c1c1c;}.cls-36{fill:#71706f;}.cls-37{fill:#464646;}.cls-38{fill:#161616;}.cls-39{fill:#3d3d3d;}.cls-40{fill:#242424;}.cls-41{fill:#4a4a4a;}.cls-42{fill:#191919;}.cls-43{fill:#4b4b4c;}.cls-44{fill:#515151;}.cls-45{fill:#393939;}.cls-46{fill:#484848;}.cls-47{fill:#4d4d4d;}.cls-48{fill:#3c3c3c;}.cls-49{fill:#232323;}.cls-50{fill:#141414;}.cls-51{fill:#474746;}.cls-52{fill:#464545;}.cls-53{fill:#1d1d1d;}.cls-54{fill:#444443;}.cls-55{fill:#232223;}.cls-56{fill:#262626;}.cls-57{fill:#2e2e2e;}.cls-58{fill:#4c4c4c;}.cls-59{fill:#474646;}.cls-60{fill:#3a3a3a;}.cls-61{fill:#494948;}.cls-62{fill:#3d3e3e;}.cls-63{fill:#1f1f1f;}.cls-64{fill:#525151;}.cls-65{fill:#2e2d2d;}.cls-66{fill:#272626;}.cls-67{fill:#4b4b4b;}.cls-68{fill:#292a2a;}.cls-69{fill:#282828;}.cls-70{fill:#494949;}.cls-71{fill:#2b2c2b;}.cls-72{fill:#9b9999;}.cls-73{fill:#383838;}.cls-74{fill:#1b1a1b;}.cls-75{fill:#3b3a3a;}.cls-76{fill:#5c5b5b;}.cls-77{fill:#2c2c2c;}.cls-78{fill:#1e1d1d;}.cls-79{fill:#363635;}.cls-80{fill:#2d2d2d;}.cls-81{fill:#1c1c1d;}.cls-82{fill:#131313;}.cls-83{fill:#353434;}.cls-84{fill:#3b3b3b;}.cls-85{fill:#101010;}.cls-86{fill:#474747;}.cls-87{fill:#2c2c2b;}.cls-88{fill:#212121;}.cls-89{fill:#343434;}.cls-90{fill:#363535;}.cls-91{fill:#3f3f3e;}.cls-92{fill:#303030;}.cls-93{fill:#424141;}.cls-94{fill:#424242;}.cls-95{fill:#4f4f4f;}.cls-96{fill:#535252;}.cls-97{fill:#252424;}.cls-98{fill:#676666;}.cls-99{fill:#434242;}.cls-100{fill:#343333;}.cls-101{fill:#393838;}.cls-102{fill:#2f2f2e;}.cls-103{fill:#141515;}.cls-104{fill:#3a3b3b;}.cls-105{fill:#454645;}.cls-106{fill:#181818;}.cls-107{fill:#3f3e3e;}.cls-108{fill:#4e4e4d;}.cls-109{fill:#333;}.cls-110{fill:#545353;}.cls-111{fill:#0c0c0c;}.cls-112{fill:#4f4d4d;}.cls-113{fill:#1f1e1e;}.cls-114{fill:#444;}.cls-115{fill:#4e4e4e;}.cls-116{fill:#121213;}.cls-117{fill:#484747;}.cls-118{fill:#3a3a39;}.cls-119{fill:#272727;}.cls-120{fill:#4f4f4e;}.cls-121{fill:#353535;}.cls-122{fill:#323232;}.cls-123{fill:#252524;}.cls-124{fill:#282827;}.cls-125{fill:#222;}.cls-126{fill:#40403f;}.cls-127{fill:#373837;}.cls-128{fill:#242323;}.cls-129{fill:#3e3e3f;}.cls-130{fill:#333332;}.cls-131{fill:#383737;}.cls-132{fill:#4b4a49;}.cls-133{fill:#232222;}.cls-134{fill:#302f2f;}.cls-135{fill:#656565;}.cls-136{fill:#232322;}</style></defs><title>linkIcon</title><g id="Layer_2" data-name="Layer 2"><g id="Desktop"><g id="Main_Section" data-name="Main Section"><g id="Link_Icon" data-name="Link Icon"><g id="VtEY6X"><path class="cls-1" d="M18.77,0H20l.34.19L20,.5l-.19.05L19.66.49,19.47.32h-.16l-.54,0V0Z"/><path class="cls-2" d="M18.77.17V.49h-.18L17.88.16A.39.39,0,0,0,17.94,0h.48Z"/><path class="cls-3" d="M20.88.13l.18,0h0a.32.32,0,0,1,0,.14l-.2.39a.32.32,0,0,1-.16,0V.34L20.9.21Z"/><path class="cls-4" d="M20.35.2,20,0h.5a.35.35,0,0,0,.06.14Z"/><path class="cls-5" d="M18.77.17,18.42,0h.35Z"/><path class="cls-3" d="M25,4.76l0,.53-.19-.53.06-.21.14.08A.09.09,0,0,0,25,4.76Z"/><path class="cls-6" d="M.61,16.47l.13,0,.17.13.17.17L1,17a.3.3,0,0,0-.16,0H.73l-.12-.13-.06,0v-.18A.16.16,0,0,0,.61,16.47Z"/><path class="cls-1" d="M.39,21.43.2,21.37,0,18.74l.37-.35v.37a6.8,6.8,0,0,0,.17.9c.14.42.34.81.51,1.21l0,.36-.46,0-.22.14,0,0Z"/><path class="cls-7" d="M.37,18.39,0,18.74l.06-.53.12-.38v0H.37l.18.35h0Z"/><path class="cls-8" d="M.18,17.83l-.12.38,0-.3Z"/><path class="cls-1" d="M4.09,24.61l-.19-.19v-.2h.53l.18,0,.49,0,.1.13L5,24.58H5l-.35.12,0,0,0,0Z"/><path class="cls-9" d="M11.5,6.53l.37-.92.14,0,.21,0h.2c0,.32.09.75-.07.94-.55.66-.23,1.3-.11,2a11,11,0,0,1,.16,1.17,4.08,4.08,0,0,1-.68-1.05C11.59,8,11.56,7.25,11.5,6.53Z"/><path class="cls-10" d="M5.86,11.86a.32.32,0,0,1,.17,0h.36L7.46,12h.32l.55-.14.18-.15.19.13-.19.35H6.56L6,12.21l-.37,0a.61.61,0,0,0,0-.14v0Z"/><path class="cls-11" d="M2.34,14.85l.31-.54.19-.2a.76.76,0,0,1,0-.15h.53v.15a.29.29,0,0,1-.16,0L3,14.51h0l-.15.15-.23.2H2.34Z"/><path class="cls-12" d="M1.41,15.55l.56-.5.17.15h0l0,.22L2,15.57H2l-.07,0a.28.28,0,0,0,0,.13l-.31.35v-.34Z"/><path class="cls-1" d="M15.94,1.55l-.15.21h-.06l-.15.18h-.53l.72-.7.17.17Z"/><path class="cls-13" d="M6.94,11.5l1.36.05a.49.49,0,0,1,0,.11l-.17.05-.89,0-.4-.06A.31.31,0,0,1,6.94,11.5Z"/><path class="cls-14" d="M12.42,5.65h-.2l-.13-.19-.05,0,0,0,.43-.54h.15l.17.17Z"/><path class="cls-15" d="M12.34,10.09l-.1-.2.17-.17h0l.19-.2.32.16,0,.21-.17.18h-.18Z"/><path class="cls-16" d="M3.38,14H3l.56-.55.2.22a.47.47,0,0,0,0,.17L3.57,14Z"/><path class="cls-17" d="M9.92,12.22a.17.17,0,0,1,.17,0,.68.68,0,0,1,0,.14l.17.19.21.22-.15.15-.24,0-.17-.18-.18-.17v-.18Z"/><path class="cls-3" d="M17.57.71c-.31.06-1.32.46-1.63.51,0-.05.7-.46.71-.52l.68-.24Z"/><path class="cls-18" d="M11.34,11.14l.7-.4V11l0,.2-.18.17-.37,0-.22,0S11.33,11.19,11.34,11.14Z"/><path class="cls-19" d="M14,3l.51-.5v.32a.86.86,0,0,1,0,.16l-.18.2h-.17Z"/><path class="cls-20" d="M9.92,12.22l-.17.15H9.58l-.36-.17a1.09,1.09,0,0,1,0-.18l0,0Z"/><path class="cls-21" d="M8.51,12.17l.19-.35.53.18,0,0L9,12.21Z"/><path class="cls-18" d="M12.21,10.56l.13-.33.24,0v.38l-.17.17-.19,0Z"/><path class="cls-21" d="M12.44,4.77l.11-.19h.56L13,4.77l-.16.15-.21,0h0Z"/><path class="cls-19" d="M3.75,13.62l-.2-.22.35-.34v.57Z"/><path class="cls-18" d="M4.59,12.67l.2-.31v.56s0,.09,0,.14a.5.5,0,0,1-.17,0v-.17Z"/><path class="cls-22" d="M.91,16.62l-.17-.13.18-.23h.14l.24.2a.29.29,0,0,0,0,.16l-.07,0a.47.47,0,0,0-.17,0Z"/><path class="cls-23" d="M11.34,11.49c0,.13-.52.75-.52.88h-.19l-.2-.2a.4.4,0,0,1,0-.15C10.58,12,11.22,11.5,11.34,11.49Z"/><path class="cls-24" d="M3.91,13.26v-.2l.19-.13v.33Z"/><path class="cls-19" d="M1.41,15.55l.2.18H1.25Z"/><path class="cls-25" d="M12.18,9.73,12,9.53l.06,0,.15,0,.17.19h-.22Z"/><path class="cls-26" d="M1.25,15.73h.18v.18H1.1Z"/><path class="cls-22" d="M1.1,15.91h.16v.18H1Z"/><path class="cls-27" d="M4.8,12.55v-.19L5,12.24a.29.29,0,0,1,0,.13v.18Z"/><path class="cls-28" d="M5.68,12.05a.61.61,0,0,1,0,.14H5.36a.78.78,0,0,1,0-.14A.21.21,0,0,1,5.49,12Z"/><path class="cls-29" d="M8.17,11.71l.17-.05a.51.51,0,0,1,.17,0l-.18.15Z"/><path class="cls-1" d="M15.05,1.93h.18v.19h-.33Z"/><path class="cls-30" d="M12.21,10.56l0,.22,0,.19h-.2v-.22Z"/><path class="cls-9" d="M15.94,1.4l-.17-.17.17-.14V1.4Z"/><path class="cls-31" d="M12.58,10.25l-.24,0a.33.33,0,0,0,0-.14l.24,0Z"/><path class="cls-32" d="M10.82,11.68l.14,0,0,.21h-.18A.91.91,0,0,1,10.82,11.68Z"/><path class="cls-33" d="M5.68,12.05l-.19,0a.34.34,0,0,0,.06-.15l.13,0a.57.57,0,0,1,0,.13Z"/><path class="cls-33" d="M5.34,12.06a.78.78,0,0,0,0,.14l-.22.06,0,0,0,0Z"/><path class="cls-34" d="M5,12.37a.29.29,0,0,0,0-.13l.18-.06,0,0,0,0a.45.45,0,0,1,0,.11Z"/><path class="cls-35" d="M12.18,9.73h.23l-.17.17A.23.23,0,0,1,12.18,9.73Z"/><path class="cls-36" d="M10.11,12.36a.68.68,0,0,0,0-.14l.2-.09a.1.1,0,0,1,0,.09s0,.09,0,.14l0,0Z"/><path class="cls-37" d="M4.59,12.67l0,.24a.23.23,0,0,0-.14,0l-.06-.07Z"/><path class="cls-38" d="M4.09,13.08v-.15h.17a.85.85,0,0,1,0,.16Z"/><path class="cls-30" d="M4.26,13.08a.85.85,0,0,0,0-.16l.16,0,.06.07,0,.17-.18,0Z"/><path class="cls-16" d="M2.68,14.15l.16,0-.19.2A.9.9,0,0,0,2.68,14.15Z"/><path class="cls-8" d="M2.34,14.85H2.5v.2a.26.26,0,0,0-.15,0L2.29,15A.33.33,0,0,1,2.34,14.85Z"/><path class="cls-19" d="M2.14,15.2,2,15.05h.17Z"/><path class="cls-39" d="M2.14,15.2V15l.15,0,.07.07a.26.26,0,0,0,0,.15l-.21,0Z"/><path class="cls-22" d="M1,16.09H1l.09.17H.92Z"/><path class="cls-40" d="M12.44,4.77l.13.17h-.14Z"/><path class="cls-41" d="M13,4.59h-.19a.76.76,0,0,0,0-.15l.17-.05.05.06A.23.23,0,0,0,13,4.59Z"/><path class="cls-42" d="M12.75,4.44a.76.76,0,0,1,0,.15h-.21Z"/><path class="cls-43" d="M12.92,4.39l.17-.18.05.07a.15.15,0,0,0,0,.13.53.53,0,0,0-.17,0Z"/><path class="cls-44" d="M13.09,4.21,13.26,4l.08,0-.06.26a.18.18,0,0,0-.14-.06Z"/><path class="cls-3" d="M13.26,4l.18-.18.07.05-.06.2a.2.2,0,0,0-.11,0Z"/><path class="cls-45" d="M13.44,3.86l.18-.18.05.06a.19.19,0,0,0,0,.13.42.42,0,0,0-.16,0Z"/><path class="cls-25" d="M13.62,3.68l.18-.18,0,.07,0,.16a.33.33,0,0,0-.14,0Z"/><path class="cls-46" d="M13.8,3.5,14,3.32l.06.07a.12.12,0,0,0,0,.13l-.21,0Z"/><path class="cls-47" d="M14,3.32a.49.49,0,0,1,0-.16h.15v.24a.12.12,0,0,0-.14,0Z"/><path class="cls-38" d="M14.17,3.17H14A.12.12,0,0,1,14,3Z"/><path class="cls-48" d="M14.7,2.49l.19,0,0,0,0,.2H14.7Z"/><path class="cls-49" d="M14.7,2.49v.15h-.17V2.5Z"/><path class="cls-45" d="M14.89,2.47V2.28h.16v.15h-.19Z"/><path class="cls-50" d="M15.06,2.29H14.9V2.11h.15Z"/><path class="cls-51" d="M16.33,1l-.06.19a.38.38,0,0,0-.15,0V1.06Z"/><path class="cls-5" d="M16.12,1.06v.17h-.18V1.09Z"/><path class="cls-17" d="M22.47,1.77l-.71-.7L22,.89l.35.18.2.15v0l.21.18,0,0,0,.22-.12.15Z"/><path class="cls-1" d="M23.19,1.79l.54.66v.19l-.23.21a.53.53,0,0,1-.12,0,.38.38,0,0,0,0-.15l-.18-.2h0V1.93A.71.71,0,0,1,23.19,1.79Z"/><path class="cls-1" d="M21.61,1,21.25.88,20.88.7h0l.2-.39h.18l0,.06.2.14h0l.22.17.18.16a.24.24,0,0,0-.11.06Z"/><path class="cls-49" d="M24.2,2.84l.08.32a.08.08,0,0,0-.08,0h-.12V2.92a.09.09,0,0,0,0-.11A.18.18,0,0,0,24.2,2.84Z"/><path class="cls-9" d="M23.72,2.64V2.45l.2.15,0,.22h-.17A1.09,1.09,0,0,0,23.72,2.64Z"/><path class="cls-29" d="M23.19,1.79a.71.71,0,0,0,0,.14H23V1.61a.45.45,0,0,1,.16,0C23.18,1.69,23.18,1.74,23.19,1.79Z"/><path class="cls-52" d="M23.9,2.82l0-.22.15.21a.09.09,0,0,1,0,.11A1,1,0,0,0,23.9,2.82Z"/><path class="cls-53" d="M22.66,1.23a.88.88,0,0,1,.05.15L22.5,1.2A.41.41,0,0,0,22.66,1.23Z"/><path class="cls-26" d="M22.51,1.22l-.2-.15Z"/><path class="cls-54" d="M22,.89l-.2.18h0L21.72.9a.24.24,0,0,1,.11-.06A.1.1,0,0,1,22,.89Z"/><path class="cls-26" d="M21.65.68,21.43.51Z"/><path class="cls-3" d="M21.44.51l-.2-.14Z"/><path class="cls-55" d="M17.88.16l.71.33a.43.43,0,0,1-.16.05l-.36,0L17.54.34l0,0Z"/><path class="cls-55" d="M17.57.71,17.33.46,17.5.31l0,0,.17.33A.13.13,0,0,1,17.57.71Z"/><path class="cls-1" d="M20.72.67l-.09,0h-.08L20,.54l0,0,.33-.3.22-.06h0l.17.18h0Z"/><path class="cls-4" d="M19.66.49h-.89V.34l.54,0h.16Z"/><path class="cls-56" d="M19.47.32h0Z"/><path class="cls-9" d="M20.72.19l.18,0-.18.13h0Z"/><path class="cls-26" d="M20.72.19V.33L20.55.15Z"/><path class="cls-57" d="M24.75,4.76l.19.53V6l.06.18-.07.17h-.14l-.18-.18h-.16V5.47l.15-.71Z"/><path class="cls-3" d="M24.79,6.36h.14v.47a.42.42,0,0,0-.14.09V6.36Z"/><path class="cls-58" d="M24.79,7.42c-.05,0-.06,0,0,.1l-.15.07.13-.33,0,0,.05,0Z"/><path class="cls-26" d="M24.57,3.71a.16.16,0,0,1,0,.16v.36h0l-.17.18h-.16a.41.41,0,0,1,0-.16.53.53,0,0,0,0-.17l.15-.37h.13Z"/><path class="cls-7" d="M24.75,4.76h-.14V4.23h.15l0,.31Z"/><path class="cls-41" d="M24.76,4.24h-.15V3.87Z"/><path class="cls-59" d="M24.57,3.71h-.13l-.06-.21h0l0,0Z"/><path class="cls-26" d="M24.41,3.35l.06.17,0,0h0l-.12-.13Z"/><path class="cls-59" d="M24.41,3.35l-.15,0-.06-.2a.08.08,0,0,1,.08,0l.14,0A.86.86,0,0,1,24.41,3.35Z"/><path class="cls-1" d="M24.94,6V6Z"/><path class="cls-29" d="M8.18,24.09l-.55.33v-.37L8,23.86h.2Z"/><path class="cls-39" d="M8.69,23.85l-.33.06a.22.22,0,0,0,0-.08s0-.1,0-.16,0-.09,0-.13l.36-.16.16.14v.17h0Z"/><path class="cls-60" d="M7.63,24.05v.37l-.18.16-.36-.36Z"/><path class="cls-40" d="M7.09,24.22l.36.36,0,0H7.33l-.41-.21h0a.76.76,0,0,1,0-.15l0-.05Z"/><path class="cls-60" d="M6.92,24.4l.41.21-.41.17V24.4Z"/><path class="cls-34" d="M8.69,23.85l.17-.15v.14l-.08,0Z"/><path class="cls-61" d="M8.86,23.84V23.7h0l.2,0a.83.83,0,0,0,0,.15H8.93Z"/><path class="cls-46" d="M8.18,24.09l0-.22h0a.42.42,0,0,0,.15,0,.22.22,0,0,1,0,.08Z"/><path class="cls-62" d="M.41,16.86l.14-.06.06,0L.73,17h0l.12.16.08,0a.5.5,0,0,0,0,.17l-.2.18L.4,17.14H.31Z"/><path class="cls-42" d="M.91,16.62h.14l0,.18h0Z"/><path class="cls-63" d="M.73,17l-.12-.13Z"/><path class="cls-35" d="M.84,17.13.72,17H.86A.29.29,0,0,1,.84,17.13Z"/><path class="cls-64" d="M.84,17.13a.29.29,0,0,0,0-.16A.3.3,0,0,1,1,17l.09,0a.12.12,0,0,0-.06.13l-.13.07Z"/><path class="cls-32" d="M2.49,23.7,2,23.18,1.78,23h0l-.21-.17,0,0-.21-.2h0l.05-.21.24-.21.12,0a.57.57,0,0,0,0,.13l.16.24.17.18.19.18.18.17.16.18v.18l-.11.15Z"/><path class="cls-9" d="M.58,21.21l.46,0,.07,0-.05.19-.16.17v.18a1,1,0,0,0,0,.17l0,0-.37-.37a.77.77,0,0,0,0-.15Z"/><path class="cls-29" d="M3.37,24.23a.29.29,0,0,1-.16,0v-.32h.37a.24.24,0,0,1,.16.05v.14H3.55l-.16.17Z"/><path class="cls-40" d="M3.91,24.22v.2l-.53-.19h.18l.18-.17h.18Z"/><path class="cls-65" d="M1.44,22.45l-.05.21a.31.31,0,0,1-.13,0l-.18-.35h.35A1,1,0,0,1,1.44,22.45Z"/><path class="cls-35" d="M1.26,22.28H1.08L1,22.1h.31Z"/><path class="cls-40" d="M2.84,23.88l-.35-.18.06,0,.12,0h.18v.18Z"/><path class="cls-60" d="M3.2,23.87v.32L3,24.06v-.19H3.2Z"/><path class="cls-38" d="M1,22.1H1l-.06-.16,0,0h.17Z"/><path class="cls-26" d="M1.81,23.15l0-.16.18.19Z"/><path class="cls-5" d="M3,23.87v.19l-.18-.18H3Z"/><path class="cls-66" d="M.54,18.21l-.16.55v-.37Z"/><path class="cls-67" d="M.54,21.42l-.18-.07.22-.14A1.55,1.55,0,0,0,.54,21.42Z"/><path class="cls-8" d="M.7,17.67l-.15.54-.18-.35V17.5Z"/><path class="cls-66" d="M.37,17.5v.36H.19l0-.36,0,0Z"/><path class="cls-68" d="M6.92,24.4v.3l-.9.21H5.34L5,24.73v-.15H5l.89-.18.29,0,.77,0Z"/><path class="cls-69" d="M5.21,24.37l.65,0L5,24.58Z"/><path class="cls-70" d="M4.08,24.07l.37.15H4.09A.81.81,0,0,0,4.08,24.07Z"/><path class="cls-9" d="M5,24.58v.15l-.35,0Z"/><path class="cls-26" d="M4.08,24.07a.81.81,0,0,1,0,.16H3.91v-.17A.32.32,0,0,1,4.08,24.07Z"/><path class="cls-27" d="M4.44,24.23l.18,0Z"/><path class="cls-69" d="M17.53,3a1.92,1.92,0,0,1,2.3-.32V3l-2.12.34-.18-.17Z"/><path class="cls-1" d="M22.14,4.58l.14.19,0,.35.05.19-.06,0h-.17l-.21,0-.28-.73.14-.16-.22-.34h0V3.76a.5.5,0,0,1,.13,0l.37.69s-.06,0-.05.06A.43.43,0,0,0,22.14,4.58Z"/><path class="cls-71" d="M19.83,3v-.3l.54.18a.66.66,0,0,1,0,.14V3.3Z"/><path class="cls-45" d="M20.37,3.2V3l.18-.14.35.51,0,0h-.37Z"/><path class="cls-3" d="M17.71.67,17.54.34l.53.18,0,.14Z"/><path class="cls-15" d="M21.09,3.51l.16,0V4l-.33-.32L21,3.54Z"/><path class="cls-26" d="M21.26,4V3.55l.35.21v.09c-.05.06-.11.12-.16.19Z"/><path class="cls-72" d="M20,.67l0-.13.55.14Z"/><path class="cls-40" d="M17.53,3v.37h-.18V3.18a.41.41,0,0,0,0-.16A.35.35,0,0,1,17.53,3Z"/><path class="cls-9" d="M22.49,1.92a.77.77,0,0,0,0-.15l.07,0,.12,0h.18v.18h-.19Z"/><path class="cls-72" d="M18,.66l0-.14.36,0a.57.57,0,0,1,0,.14Z"/><path class="cls-27" d="M16.12,1.23a.38.38,0,0,1,.15,0l-.15.31V1.22Z"/><path class="cls-3" d="M20.88.7l.37.18Z"/><path class="cls-73" d="M20.89,3.36l.2.15-.07,0h-.1V3.34Z"/><path class="cls-26" d="M20.54,2.85,20.36,3a.66.66,0,0,0,0-.14A.15.15,0,0,1,20.54,2.85Z"/><path class="cls-5" d="M16.12,1.4v.14h-.18V1.4h.18Z"/><path class="cls-40" d="M21.72.9l.05.17L21.61,1Z"/><path class="cls-26" d="M12,5.63l.08-.17.13.19Z"/><path class="cls-74" d="M12.23,9.52l-.15,0,.16-.21,0,.05A.53.53,0,0,0,12.23,9.52Z"/><path class="cls-75" d="M11,11.85l0-.21h0l.19-.21a.66.66,0,0,1,0-.14h.14l.22,0v.32l0,0-.14.18Z"/><path class="cls-26" d="M11.34,11.85l.14-.18a.32.32,0,0,0,0,.14Z"/><path class="cls-76" d="M11.51,11.81a.32.32,0,0,1,0-.14l0,0a.39.39,0,0,1,.15,0,1,1,0,0,1,0,.17h-.12Z"/><path class="cls-14" d="M10.81,12.55h-.17v-.19h.19Z"/><path class="cls-15" d="M6.39,11.84H6l.37-.21,0,.07A.66.66,0,0,1,6.39,11.84Z"/><path class="cls-15" d="M5.69,12a.57.57,0,0,0,0-.13l.18,0Z"/><path class="cls-9" d="M5.15,12.37a.45.45,0,0,0,0-.11l.22-.06h.31l.37,0v.12l-.53.22H5.15Z"/><path class="cls-77" d="M6.39,11.84a.66.66,0,0,0,0-.14l.5-.07.4.06.17.15a.66.66,0,0,0,0,.14Z"/><path class="cls-21" d="M7.45,11.84l-.17-.15.89,0,.16.13L7.78,12Z"/><path class="cls-78" d="M6,12.33v-.12l.52-.05-.2.14Z"/><path class="cls-69" d="M7.45,11.84l.33.14H7.46A.66.66,0,0,1,7.45,11.84Z"/><path class="cls-14" d="M3,14.67l0,.12H3a.13.13,0,0,0-.13,0H2.67l.23-.2Z"/><path class="cls-5" d="M3.22,14.15,3,14.51Z"/><path class="cls-22" d="M3.56,14.14l-.18,0V14l.19,0,0,0A.5.5,0,0,1,3.56,14.14Z"/><path class="cls-63" d="M3,14.67l-.06,0,.15-.15Z"/><path class="cls-50" d="M2.51,15.05v-.2h.18a.81.81,0,0,0,0,.16.24.24,0,0,1-.14.05Z"/><path class="cls-69" d="M2.25,15.53l-.11,0,0-.08,0-.22.21,0v.17Z"/><path class="cls-49" d="M1.61,16.07a.77.77,0,0,0,0,.15l-.15.05a.05.05,0,0,0,0-.08v-.28h.18Z"/><path class="cls-42" d="M2.12,15.42l0,.08L2,15.57Z"/><path class="cls-26" d="M2,15.56a.28.28,0,0,1-.06.16.28.28,0,0,1,0-.13Z"/><path class="cls-79" d="M1.61,15.91H1.43v-.18h.18Z"/><path class="cls-5" d="M15.73,1.75l-.14.31a.57.57,0,0,0,0-.13Z"/><path class="cls-5" d="M15.58,1.93a.57.57,0,0,1,0,.13l-.17,0a.76.76,0,0,1,0-.15Z"/><path class="cls-46" d="M15.41,1.93a.76.76,0,0,0,0,.15l-.18,0a1.28,1.28,0,0,0,0-.19Z"/><path class="cls-29" d="M12.88,4.94l-.13.18L12.58,5l.21,0Z"/><path class="cls-80" d="M12.58,10.25v-.18h.18v.18l0,.24v.12h-.19Z"/><path class="cls-56" d="M12.91,9.68l.17-.16.21.2-.18.17h-.18Z"/><path class="cls-81" d="M12.56,9.37a.4.4,0,0,1,0,.15l-.19.2-.17-.19a.66.66,0,0,1,0-.14Z"/><path class="cls-32" d="M12.76,10.07l.17-.18h0v.18Z"/><path class="cls-42" d="M3.75,13.62h.18l0,0-.16.19,0-.05A.47.47,0,0,1,3.75,13.62Z"/><path class="cls-14" d="M3.57,14l.19-.19,0,.05a.35.35,0,0,1,0,.14l-.15,0Z"/><path class="cls-27" d="M9.58,12.37h.17v.18l0,0a.12.12,0,0,1-.13-.05Z"/><path class="cls-14" d="M10.11,12.36l.18,0a1,1,0,0,0,0,.17h0Z"/><path class="cls-20" d="M9.75,12.55l.18.17H9.76a.12.12,0,0,1,0-.13Z"/><path class="cls-26" d="M10.49,12.77l-.21-.22h0l.21.21Z"/><path class="cls-71" d="M9.93,12.72l.17.18h0l-.17-.18Z"/><path class="cls-82" d="M10.34,12.92a.51.51,0,0,0,0,.17l0,0-.16,0,0-.19h0Z"/><path class="cls-29" d="M11.67,11.65a.39.39,0,0,0-.15,0v-.32l.37,0h0a.86.86,0,0,0,0,.16h0l-.16.17Z"/><path class="cls-14" d="M12.05,11h.2v0s0,.1,0,.15l-.15,0h0Z"/><path class="cls-26" d="M11.89,11.33l.18-.17h0a.77.77,0,0,1,0,.15h-.18Z"/><path class="cls-5" d="M14.17,3.41V3.17h.17v.15s0,.09,0,.14l-.16,0,0,0Z"/><path class="cls-71" d="M14.34,3.33V3.18l.18-.2,0,0,0,.3A.51.51,0,0,1,14.34,3.33Z"/><path class="cls-27" d="M14.52,3a.86.86,0,0,0,0-.16h.3L14.54,3Z"/><path class="cls-83" d="M14.73,2.81h-.2V2.64h.17A.51.51,0,0,0,14.73,2.81Z"/><path class="cls-51" d="M9.58,12.37v.17l-.19,0a.1.1,0,0,0-.12,0s0-.11,0-.16v-.18h0Z"/><path class="cls-51" d="M9,12.21,9.21,12a1.09,1.09,0,0,0,0,.18H9Z"/><path class="cls-31" d="M12.42,10.8l.17-.17h0a.76.76,0,0,0,0,.15h0l-.15,0Z"/><path class="cls-50" d="M12.25,11l0-.19.19,0h0a.77.77,0,0,0,0,.15h0l-.15,0Z"/><path class="cls-74" d="M13.25,4.57l-.14,0H13a.23.23,0,0,1,0-.14.53.53,0,0,1,.17,0l.12,0,0,0A.47.47,0,0,1,13.25,4.57Z"/><path class="cls-22" d="M12.88,4.94l-.09,0L13,4.77Z"/><path class="cls-60" d="M3.91,13.26h.18l0,.25h0l-.22-.05Z"/><path class="cls-34" d="M3.92,13.45l.22.05L4,13.65l0,0Z"/><path class="cls-29" d="M4.44,13.12a.85.85,0,0,1,0-.17.23.23,0,0,1,.14,0v.17a.88.88,0,0,0,0,.15l-.13,0,0,0A.36.36,0,0,0,4.44,13.12Z"/><path class="cls-15" d="M4.8,12.55H5l0,.22-.2,0Z"/><path class="cls-26" d="M4.8,12.72l.2,0H5a.5.5,0,0,1,0,.13l-.18,0Z"/><path class="cls-3" d="M1.3,16.46l-.24-.2h.19l.17-.07a.05.05,0,0,1,0,.08v.17H1.3Z"/><path class="cls-3" d="M1.22,16.6a.38.38,0,0,1,0,.15l-.15.05,0-.18A.47.47,0,0,1,1.22,16.6Z"/><path class="cls-20" d="M10.49,12.76l-.21-.21a1,1,0,0,1,0-.17l0,0,.16-.2h0l.2.2v.19a.92.92,0,0,0,0,.16A.23.23,0,0,1,10.49,12.76Z"/><path class="cls-41" d="M4.09,13.08h.17l.07.16H4.09Z"/><path class="cls-84" d="M1.43,15.91v.21l-.18,0h0v-.18Z"/><path class="cls-41" d="M1.25,16.26H1.09L1,16.09h.25Z"/><path class="cls-33" d="M5.15,12.37v.18H5v-.18Z"/><path class="cls-21" d="M11.15,11.44l-.19.21,0-.16Z"/><path class="cls-25" d="M15.24,2.11l0,.18h-.14V2.11Z"/><path class="cls-15" d="M16.12,1.4h-.18V1.22h.18Z"/><path class="cls-41" d="M10.43,12.16l-.16.2s0-.1,0-.14A.2.2,0,0,1,10.43,12.16Z"/><path class="cls-29" d="M4.33,13.24l-.07-.16.18,0a.36.36,0,0,1,0,.1Z"/><path class="cls-85" d="M2.35,15.22a.26.26,0,0,1,0-.15.26.26,0,0,1,.15,0h0a.76.76,0,0,0,0,.15h0l-.16,0Z"/><path class="cls-34" d="M13.26,4.38l-.12,0a.15.15,0,0,1,0-.13.18.18,0,0,1,.14.06Z"/><path class="cls-34" d="M13.26,4.38l0,0,.06-.26a.2.2,0,0,1,.11,0,.38.38,0,0,0,0,.1l-.06.18a.25.25,0,0,0-.12,0Z"/><path class="cls-9" d="M13.46,4.21a.38.38,0,0,1,0-.1l.06-.2a.42.42,0,0,1,.16,0l.12,0,0,0Z"/><path class="cls-27" d="M13.79,3.85l-.12,0a.19.19,0,0,1,0-.13.33.33,0,0,1,.14,0A.5.5,0,0,1,13.79,3.85Z"/><path class="cls-1" d="M13.79,3.85a.5.5,0,0,0,0-.12l0-.16.21,0,.1,0,0,0a.4.4,0,0,0,0,.15L14,3.84a.4.4,0,0,0-.15,0Z"/><path class="cls-5" d="M14.15,3.49l-.1,0a.12.12,0,0,1,0-.13.12.12,0,0,1,.14,0Z"/><path class="cls-26" d="M14.73,2.81a.51.51,0,0,1,0-.17h.15l.06,0-.08.19Z"/><path class="cls-27" d="M15.06,2.29h.14l-.14.15Z"/><path class="cls-53" d="M22.66,1.76l-.12,0,.12-.15h0Z"/><path class="cls-31" d="M22.69,1.36l.16,0v.2h-.18Z"/><path class="cls-52" d="M23.72,2.64a1.09,1.09,0,0,1,0,.18h0l-.23,0h0Z"/><path class="cls-52" d="M23.36,2.67l-.18-.2Z"/><path class="cls-41" d="M23.19,2.48l-.17,0h0l0-.16h.2Z"/><path class="cls-5" d="M23.2,2.29H23V2.11h.18Z"/><path class="cls-6" d="M23.2,2.11H23V1.93h.18Z"/><path class="cls-21" d="M24.2,3.17l.06.2.12.13.06.21h0l-.35.18a.1.1,0,0,1,0-.11l-.13-.25a.11.11,0,0,1-.05-.12l0-.23h.3Z"/><path class="cls-59" d="M24.08,3.17H23.9V3h0l.18-.05Z"/><path class="cls-29" d="M24.08,2.94,23.9,3V2.82h0a1,1,0,0,1,.17.1Z"/><path class="cls-52" d="M23.9,2.82V3h-.21l0-.18h.17Z"/><path class="cls-86" d="M22.84,1.93V1.75L23,1.68v.25h-.18Z"/><path class="cls-34" d="M23,1.68l-.17.07h0V1.58H23v.1Z"/><path class="cls-87" d="M24.46,5.47c0-.16,0-.33-.05-.49s0-.26,0-.39h.18v.17Z"/><path class="cls-88" d="M24.43,6.53l0-.35h.16v.17Z"/><path class="cls-3" d="M24.61,6.35V6.18l.18.18h-.18Z"/><path class="cls-40" d="M24.61,6.35h.18v.55a.14.14,0,0,1,0,.15l-.29-.36-.07-.19,0,0Z"/><path class="cls-80" d="M24.48,6.7l.29.36,0,.2-.13.33,0,.19-.07,0-.12.2h-.37a.42.42,0,0,0-.15,0V8l0-.18.06,0,.18,0s0,0,0,0a.36.36,0,0,0,0-.1l-.08,0,.05-.17.1-.22v0l0-.15,0-.18Z"/><path class="cls-59" d="M24.09,3.88l.35-.18-.15.37-.17,0-.06,0Z"/><path class="cls-41" d="M24.43,4.59l0,.39-.13-.09V4.4h.15Z"/><path class="cls-41" d="M24.61,4.23v.18h-.17Z"/><path class="cls-41" d="M24.12,4l.17,0a.53.53,0,0,1,0,.17Z"/><path class="cls-57" d="M24.43,4.41h.18v.18h-.18Z"/><path class="cls-89" d="M12.75,18.41c-.06-.36-.12-.71-.16-1.06-.06-.54-.1-1.08-.15-1.62h.15l.14-.14a.46.46,0,0,1,.07-.07c.77.89.55,1.87.28,2.87Z"/><path class="cls-12" d="M13.28,13.24l1.78-1.92.14,0,0,.38,0,.22v.67l0,0-1,.51-.13.18-.4.32-.18-.15-.17-.16Z"/><path class="cls-90" d="M12.59,15.73h-.15l-.27-.53,0-.09-.15-.26h0l0-.36a.33.33,0,0,0,0-.17.27.27,0,0,1,.13,0l.2-.21,0,0,.21-.21,0,0,.22,0,0,.22-.2.49.06.16.09.2s-.06.06-.05.06a.87.87,0,0,0,.09.11l0,.32a.46.46,0,0,0-.07.07Z"/><path class="cls-1" d="M20.71,12.19l-.35.14-.18-.13H20V12l0-.14a.41.41,0,0,1,.16,0h.17l.16,0,.19-.18h0l.18-.19a.83.83,0,0,1,0-.15h.15v.17l0,.22a.71.71,0,0,0,0,.14l-.17.18Z"/><path class="cls-40" d="M16.12,13.06l-.53-.18v-.16l.18-.17h0l.2,0h0l.17.19.4,0,.31.05v.15l-.38.13-.16-.13Z"/><path class="cls-91" d="M16.45,13l.38-.13h.88v.33H17l-.74-.13.08-.07h.1Z"/><path class="cls-92" d="M17.71,13.23V12.9l.53-.15.19.13v.24Z"/><path class="cls-20" d="M20,12v.39l-.17.19-.19.13-.19-.14h0a1,1,0,0,0,0-.17.88.88,0,0,0,0-.17l0-.05h.17l.18-.12Z"/><path class="cls-14" d="M12.44,19.27l.3-.54,0,0v.34l.16.18-.32.2,0-.07Z"/><path class="cls-57" d="M22.15,10.62,22,11a.2.2,0,0,1-.13,0h-.42l.05-.17h.14l.17-.17.35,0Z"/><path class="cls-63" d="M12.75,18.41l.33,0v.35h-.32l0,0Z"/><path class="cls-9" d="M15.59,12.72v.16l-.19-.14v-.21l.19-.17a.19.19,0,0,1,.16.05.66.66,0,0,0,0,.14h0Z"/><path class="cls-57" d="M13.46,13.43l.18.15-.33.21h-.2v-.18l.18-.18h.17Z"/><path class="cls-93" d="M13.11,13.61V14h0l-.2.16a.33.33,0,0,1-.16,0l0-.22,0-.22,0,0,.24-.15Z"/><path class="cls-20" d="M17,13.23h0Z"/><path class="cls-3" d="M12.76,18.75h.32l-.14.35h-.18Z"/><path class="cls-20" d="M12.05,20c.06,0,.47-.51.53-.51s-.34.63-.34.71h-.33Z"/><path class="cls-1" d="M12.19,20.51l-.1.19h-.22V20.5h.33Z"/><path class="cls-32" d="M11.87,20.69h.22l0,.17H11.7a.37.37,0,0,1,0-.15A.21.21,0,0,1,11.87,20.69Z"/><path class="cls-40" d="M18.43,13.12v-.24a8.42,8.42,0,0,0,1.05-.51c.05.06.49.12.53.18Z"/><path class="cls-35" d="M19.48,12.4a1,1,0,0,1,0,.17l-.34,0,.16-.17Z"/><path class="cls-26" d="M20,12.38V12.2h.17l0,.21-.19.1Z"/><path class="cls-69" d="M22.31,10.6a.41.41,0,0,0-.16,0l0,0a.92.92,0,0,0,0-.16h.23A.75.75,0,0,1,22.31,10.6Z"/><path class="cls-20" d="M20.2,12.41l0-.21.18.13Z"/><path class="cls-22" d="M20,12.38v.13l-.17.06Z"/><path class="cls-26" d="M15.41,12.53v.21l-.19-.17,0,0Z"/><path class="cls-35" d="M19.46,12.56l.19.14Z"/><path class="cls-94" d="M16.12,13.06l.17-.16a.2.2,0,0,0,.06.13l-.08.07h-.08Z"/><path class="cls-27" d="M13.12,14v-.19h.2Z"/><path class="cls-34" d="M12.94,14.13l.2-.16Z"/><path class="cls-35" d="M12.64,14.83l-.06-.16A.25.25,0,0,1,12.64,14.83Z"/><path class="cls-38" d="M12.77,15.2a.87.87,0,0,1-.09-.11s0,0,.05-.06A.53.53,0,0,1,12.77,15.2Z"/><path class="cls-38" d="M12.76,19.09h.18l0,.18Z"/><path class="cls-73" d="M12.39,19.61a1,1,0,0,1,0-.17.16.16,0,0,0,.12,0l0,.07a.24.24,0,0,1,0,.15l-.15,0Z"/><path class="cls-69" d="M12.22,19.81l.17-.2,0,0-.06.2Z"/><path class="cls-30" d="M12.35,19.84l.06-.2.15,0v.19l-.21,0Z"/><path class="cls-26" d="M12.35,19.84l.21,0-.07.2Z"/><path class="cls-48" d="M12.05,20.16h.19a1.11,1.11,0,0,0,0,.17h-.17Z"/><path class="cls-40" d="M12.05,20.33h.17l0,.18h-.14v-.18Z"/><path class="cls-37" d="M8,23.86l.2-.13a.33.33,0,0,1,0,.14H8Z"/><path class="cls-16" d="M8.86,23.32,9,23.19l.17-.05,0-.14.15,0,.22.2a.76.76,0,0,1,0,.16l-.18.18H9.26l-.21.17h0l-.2,0v-.37Z"/><path class="cls-35" d="M8.86,23.32v.2l-.16-.14A.44.44,0,0,1,8.86,23.32Z"/><path class="cls-78" d="M8.16,23.87a.33.33,0,0,0,0-.14.58.58,0,0,1,.17-.06c0,.06,0,.11,0,.16A.42.42,0,0,1,8.16,23.87Z"/><path class="cls-60" d="M6.15,24.38a1.47,1.47,0,0,1,.1-.13h.68a.76.76,0,0,0,0,.15Z"/><path class="cls-21" d="M9.05,23.7l.21-.17a.75.75,0,0,1,0,.16Z"/><path class="cls-5" d="M.7,17.67.37,17.5h0l0-.21a.17.17,0,0,1,.05-.15l.33.37A.41.41,0,0,1,.7,17.67Z"/><path class="cls-62" d="M.35,17.29l0,.21H.22a.47.47,0,0,1,0-.17Z"/><path class="cls-15" d="M1.44,22.45a1,1,0,0,0,0-.17h0l.24,0h0Z"/><path class="cls-9" d="M1.81,22.39l.16.05H2a.76.76,0,0,0,0,.15l0,0Z"/><path class="cls-22" d="M1.43,22.81s0-.1,0-.16l.21.2Z"/><path class="cls-1" d="M2.14,22.81,2,22.63l0,0,.16,0h0a.77.77,0,0,0,0,.15Z"/><path class="cls-69" d="M1.78,23a.45.45,0,0,0-.16,0,.58.58,0,0,1-.05-.14Z"/><path class="cls-21" d="M2.33,23l-.19-.18,0,0,.15,0,0,.15Z"/><path class="cls-27" d="M2.51,23.16,2.33,23l0,0,.15,0a.57.57,0,0,1,0,.14Z"/><path class="cls-26" d="M2.67,23.34l-.16-.18,0,0,.15,0a.83.83,0,0,1,0,.15Z"/><path class="cls-69" d="M2.66,23.52v-.18l.06-.05a.14.14,0,0,1,.12.06v.17H2.66Z"/><path class="cls-22" d="M2.67,23.69l-.12,0,.11-.15h0Z"/><path class="cls-26" d="M1.06,21.4a.1.1,0,0,1,.07.1l-.23.07Z"/><path class="cls-15" d="M.9,21.57l.23-.07h0c0,.08,0,.16,0,.24H.9Z"/><path class="cls-10" d="M.9,21.75h.18v.18H.91A1,1,0,0,1,.9,21.75Z"/><path class="cls-60" d="M3.54,23.73l0,.14H3.2l0-.23Z"/><path class="cls-4" d="M3.73,23.91a.22.22,0,0,1,.16,0l0,.13H3.73Z"/><path class="cls-95" d="M3.55,24.22H3.39l.16-.17A.49.49,0,0,1,3.55,24.22Z"/><path class="cls-60" d="M3.55,24.22a.49.49,0,0,0,0-.17h.18Z"/><path class="cls-4" d="M1.26,22.28V22.1h0l.24-.05h0l-.05.24H1.26Z"/><path class="cls-30" d="M1,22.1l.05-.18h.18v.18H1Z"/><path class="cls-96" d="M2.67,23.69v-.17h.18v.19H2.67Z"/><path class="cls-96" d="M3,23.87H2.85v-.18h0l.17.17Z"/><path class="cls-27" d="M3,23.87l-.17-.17v-.19H3.2a.27.27,0,0,1,0,.12l0,.23Z"/><path class="cls-97" d="M6.57,22.11c0,.05,0,.1,0,.15L5,22.11l1.44-.19h0l.17.17Z"/><path class="cls-69" d="M4.62,22.07l-.18-.13-.16-.18H4.07l-.17-.17,0,0h.35l.17-.13.53.31v.18H4.8Z"/><path class="cls-46" d="M4.8,21.93H5l.17-.16H6.39a.75.75,0,0,0,0,.15L5,22.11a.41.41,0,0,1-.16,0A.76.76,0,0,0,4.8,21.93Z"/><path class="cls-84" d="M3.19,20.87,3,20.69h0l0,0,.11-.16h.16l.07.33Z"/><path class="cls-20" d="M3.19,20.87l.24,0H3.5l.06,0V21h-.2Z"/><path class="cls-98" d="M2.88,20.67l-.09-.17,0,0,0,0H3a.44.44,0,0,0,.06.16l0,0H3Z"/><path class="cls-27" d="M3.36,21.05h.2l0,.23a.44.44,0,0,1-.16-.06A.3.3,0,0,0,3.36,21.05Z"/><path class="cls-9" d="M3.74,21.57l0-.14.2,0c0,.06,0,.12,0,.17l0,0Z"/><path class="cls-73" d="M4.07,21.75h.21s0,.08,0,.13Z"/><path class="cls-53" d="M4.27,21.89c0-.05,0-.09,0-.13l.16.18Z"/><path class="cls-29" d="M4.8,21.93a.76.76,0,0,1,0,.15l-.09,0-.08,0Z"/><path class="cls-35" d="M23.7,8.12a.07.07,0,0,0,.05-.1L23.91,8v.53h-.17l0-.21A.38.38,0,0,0,23.7,8.12Z"/><path class="cls-56" d="M22.31,5.12l0-.35Z"/><path class="cls-21" d="M23.69,3h.22v.18h-.18a.31.31,0,0,0-.13,0L23.49,3l.06,0,0,0Z"/><path class="cls-58" d="M24.29,6.89l0-.18a.11.11,0,0,0,0-.13l.13-.07.07.19C24.42,6.77,24.35,6.83,24.29,6.89Z"/><path class="cls-64" d="M24,7.61l.12,0,.08,0a.17.17,0,0,0,0,.14l-.18,0Z"/><path class="cls-78" d="M22.14,4.58a.43.43,0,0,1-.09-.1s0,0,.05-.06A.29.29,0,0,1,22.14,4.58Z"/><path class="cls-59" d="M23.72,3.18h.18l0,.23a.44.44,0,0,1-.15,0Z"/><path class="cls-27" d="M16.31,4.06l.15,0,0,0v.35a.07.07,0,0,1-.11,0h-.22l0,0a.41.41,0,0,0,0-.16h0Z"/><path class="cls-17" d="M15.77,4.59,16,4.42l.15,0,0,0a.78.78,0,0,0,0,.16v.19a.07.07,0,0,1-.11,0l-.28-.07C15.74,4.68,15.76,4.63,15.77,4.59Z"/><path class="cls-19" d="M16.46,4a.77.77,0,0,0,0-.15l.14,0,0,0v.17h-.17Z"/><path class="cls-99" d="M17.71,3.31l-.17,0V3.14Z"/><path class="cls-12" d="M22.3,5.29l0,.89-.15-.36V5.29Z"/><path class="cls-29" d="M22.13,5.29v.53H22l0-.51Z"/><path class="cls-45" d="M21.61,4.41l-.05-.33.22.34Z"/><path class="cls-26" d="M21.61,4.41h.17l-.14.16a.54.54,0,0,1-.05-.11A.14.14,0,0,1,21.61,4.41Z"/><path class="cls-45" d="M21.58,4.09a.17.17,0,0,1-.15,0c.05-.07.11-.13.16-.19Z"/><path class="cls-20" d="M20.54,3.33l-.17,0V3.2Z"/><path class="cls-32" d="M20.93,3.7V3.53H21Z"/><path class="cls-83" d="M17.37,3.53l-.32.39-.05,0V3.49a.19.19,0,0,1,0-.13l.16,0Z"/><path class="cls-17" d="M17,3.49V3.7h-.17l0,0,0-.15Z"/><path class="cls-69" d="M17.37,3.53l-.2-.19s0-.09,0-.14l.15,0v.36Z"/><path class="cls-99" d="M17.37,3.54V3.35h.19Z"/><path class="cls-19" d="M22.86,2.27l-.17-.18a.83.83,0,0,1,0-.15H23v.36Z"/><path class="cls-99" d="M22.84,1.58v.18h-.18V1.58Z"/><path class="cls-45" d="M16.62,3.85l0-.15a.32.32,0,0,1,.14,0l0,0v.18h-.18Z"/><path class="cls-92" d="M15.06,6.18l-.34.71h-.19l-.17-.35,0-.19a.15.15,0,0,0,0-.14l.15,0h.55Z"/><path class="cls-10" d="M13.64,9c.11-.11.22-.23.34-.34h.19v.17l.05.24v0L14,9.24l0,0-.2.22,0,0-.22,0V9Z"/><path class="cls-84" d="M14.15,8.47V7.76l.07,0,.32.17v.17h0l-.13.13,0,.22Z"/><path class="cls-77" d="M14.15,8.47h.2v.18H14Z"/><path class="cls-21" d="M13.64,9v.2h-.2a.75.75,0,0,1,0-.16Z"/><path class="cls-60" d="M10.44,16.25l.18-.17.21.23a.62.62,0,0,0,0,.13v.89l-.06.35-.17.2a.26.26,0,0,0-.15,0V17l.14-.15c0-.08,0-.16,0-.24l-.09-.28Z"/><path class="cls-77" d="M10.83,16.31l-.21-.23.35-.35.2.2a.76.76,0,0,0,0,.15l-.16.19h0Z"/><path class="cls-100" d="M10.59,16.58c0,.08,0,.16,0,.24l-.15,0-.16.25a.45.45,0,0,1,0,.11l-.18-.06v-.62a.47.47,0,0,1,.16,0h.19Z"/><path class="cls-12" d="M12.05,15.2l-.52.19c0-.06,0-.13,0-.2h0l.19-.19a.28.28,0,0,1,0-.15h.32l0,.24A.36.36,0,0,1,12.05,15.2Z"/><path class="cls-97" d="M12.05,14.85h-.32l.3-.36Z"/><path class="cls-18" d="M11.17,15.93l-.2-.2.18-.18.21,0Z"/><path class="cls-79" d="M11.69,15l-.19.19Z"/><path class="cls-45" d="M11.51,15.19c0,.07,0,.14,0,.2h-.15l-.05,0Z"/><path class="cls-25" d="M11.36,15.57l-.21,0,.18-.18.05,0a.55.55,0,0,0,0,.17Z"/><path class="cls-4" d="M10.45,16.44h-.19l.18-.18.06.05A.34.34,0,0,0,10.45,16.44Z"/><path class="cls-5" d="M9.89,16.57a.5.5,0,0,1,0-.13l.17,0v.15Z"/><path class="cls-78" d="M13.08,13.38l0-.12a.5.5,0,0,0,.17,0v.19h0Z"/><path class="cls-21" d="M9,12.2h.2v.18a.32.32,0,0,1-.17,0Z"/><path class="cls-12" d="M9.22,13.27l.16,0-.16.22v0A.76.76,0,0,0,9.22,13.27Z"/><path class="cls-9" d="M9,13.57a.65.65,0,0,1,0-.13l.16,0v0Z"/><path class="cls-9" d="M5,12.54h.31c0,.05,0,.09,0,.13l-.31.1H5Z"/><path class="cls-33" d="M5.33,12.67s0-.08,0-.13h.23l0,.12-.16.09S5.3,12.69,5.33,12.67Z"/><path class="cls-49" d="M1.25,16.26v-.17l.18,0v.07Z"/><path class="cls-3" d="M13.29,9.18h.35v.18l0,.22,0,0-.19.19h0l-.23,0h0l-.21-.2,0-.16Z"/><path class="cls-26" d="M12.78,10.49l0-.24.21.06a.53.53,0,0,0,0,.13h0Z"/><path class="cls-86" d="M13,10.31l-.21-.06v-.18h.17l0,.23Z"/><path class="cls-45" d="M12.93,10.07V9.89h.18l0,.23v0l-.23,0Z"/><path class="cls-89" d="M13.11,9.89l.18-.17h0l0,.22h0l-.22,0Z"/><path class="cls-101" d="M9.57,12.9l.19-.18h.17l.17.18,0,.19h0l-.18.23h0l-.23,0-.15-.15L9.54,13A.35.35,0,0,1,9.57,12.9Z"/><path class="cls-9" d="M4.27,13.49H4.14l0-.25h.24l.09,0,0,0a.57.57,0,0,0,0,.14Z"/><path class="cls-69" d="M5.9,14.52a.2.2,0,0,1,.13,0V15l-.12.18-.24,0H5.5V15h.19l.07,0a.75.75,0,0,0-.07-.12v0a1,1,0,0,1,0-.16h0Z"/><path class="cls-40" d="M6.39,14.35a.33.33,0,0,1,.17,0,.33.33,0,0,0,.17,0,.76.76,0,0,1,0,.15v.14l-.16,0-.19-.2Z"/><path class="cls-86" d="M6.73,14.35a.33.33,0,0,1-.17,0l.37-.21,0,.07a.38.38,0,0,1,0,.15Z"/><path class="cls-73" d="M6.39,14.35v.14l-.17,0,0,0Z"/><path class="cls-27" d="M6,14.67v-.13l.17-.06,0,0a.92.92,0,0,0,0,.16Z"/><path class="cls-35" d="M23.69,3h-.1l-.09-.15.23,0Z"/><path class="cls-59" d="M23.9,3.7l0-.18.13.25Z"/><path class="cls-102" d="M22.85,9.19a.32.32,0,0,1,.17,0l.17.15.23.06a.83.83,0,0,1,0,.15h-.12l-.24,0h-.18V9.33A.68.68,0,0,1,22.85,9.19Z"/><path class="cls-78" d="M23,9.9l-.16,0,0,0V9.72H23l0,0C23,9.8,23,9.85,23,9.9Z"/><path class="cls-103" d="M23,9.54l.24,0-.21.19,0,0Z"/><path class="cls-49" d="M24.26,8h.18l0,.18a.09.09,0,0,0-.05.11l-.15.06a.33.33,0,0,1,0-.1Z"/><path class="cls-104" d="M24.07,8.8l-.16,0V8.66h.15l0,0,.05,0Z"/><path class="cls-105" d="M24.44,8l.12-.2a.44.44,0,0,1,0,.16Z"/><path class="cls-64" d="M24.26,8V8.2l-.18-.08h0l0-.17Z"/><path class="cls-31" d="M24.07,8l0,.17-.18-.06V8A.42.42,0,0,1,24.07,8Z"/><path class="cls-106" d="M24.13,7.76a.17.17,0,0,1,0-.14.36.36,0,0,1,0,.1S24.14,7.75,24.13,7.76Z"/><path class="cls-105" d="M24.12,7.42a.55.55,0,0,1,0-.17.29.29,0,0,1,.13,0Z"/><path class="cls-69" d="M24.23,7.22a.12.12,0,0,1,0-.15Z"/><path class="cls-20" d="M18.77,10.38l-.17,0,0-.07-.13,0-.19.17-.18,0-.18,0v-.32h0l.2,0,.17-.16.69-.38h.2v.17l-.18.37h0Z"/><path class="cls-107" d="M17.88,10.55l.18,0-1.19.16s-.05-.09-.08-.14l.21-.2h.36Z"/><path class="cls-56" d="M18.24,12.75l-.53.15h-.53a.66.66,0,0,1,0-.14l0,0,0,0Z"/><path class="cls-73" d="M15.59,11.66a.27.27,0,0,1-.13,0l-.23,0,0-.38v0l.2-.21,0,0,.22,0v.37A.85.85,0,0,0,15.59,11.66Z"/><path class="cls-25" d="M18.24,10.57l.19-.17a.2.2,0,0,0,.13,0l0,.07a.53.53,0,0,0,0,.12Z"/><path class="cls-106" d="M15.59,11.5v-.19l.2,0a.65.65,0,0,1,0,.13Z"/><path class="cls-108" d="M19.35,12.22a.38.38,0,0,1,.15,0,.88.88,0,0,1,0,.17l-.19,0A.47.47,0,0,0,19.35,12.22Z"/><path class="cls-109" d="M11.35,15.57a.55.55,0,0,1,0-.17h.16Z"/><path class="cls-35" d="M12.55,19.4a.16.16,0,0,1-.12,0v-.17Z"/><path class="cls-26" d="M12.59,15.73l.14-.14Z"/><path class="cls-110" d="M15.24,12.19h.17l.16.07,0,.11-.19.17-.17,0Z"/><path class="cls-14" d="M15.23,11.66l.23,0-.21.2Z"/><path class="cls-79" d="M13.29,13.43v-.16l.17.16Z"/><path class="cls-53" d="M12.53,13.93l.19-.19,0,.22Z"/><path class="cls-111" d="M12.35,14.12l.21-.21Z"/><path class="cls-42" d="M12.18,14.3l.2-.21Z"/><path class="cls-69" d="M12.2,15.11l-.13,0,0-.24Z"/><path class="cls-109" d="M22.49,10.43a.29.29,0,0,1-.13,0h-.23L22,10.28a.28.28,0,0,1,.15,0l.2-.17V9.89h.18v.17l0,.24A.17.17,0,0,1,22.49,10.43Z"/><path class="cls-69" d="M22.51,10.31l0-.24h.18l0,0Z"/><path class="cls-38" d="M22.87,9.92a1,1,0,0,1,0,.17h-.16l0,0c0-.06,0-.12,0-.18h.18Z"/><path class="cls-26" d="M20.92,11.31a.32.32,0,0,1,0-.17l.14,0,0,.21h-.16Z"/><path class="cls-112" d="M21.07,11.48v-.17h.18v.2h0Z"/><path class="cls-112" d="M20.7,11.65l.18-.19Z"/><path class="cls-29" d="M21.07,11.48l.21,0,0,.16-.16,0Z"/><path class="cls-112" d="M20.52,11.83l.19-.18Z"/><path class="cls-113" d="M20.19,11.88h0Z"/><path class="cls-26" d="M16.83,12.75h.36a.66.66,0,0,0,0,.14h-.35Z"/><path class="cls-94" d="M16.47,12.57s0,.08.05.13l-.4,0v-.16Z"/><path class="cls-94" d="M15.76,12.41l.21.11-.2,0A.66.66,0,0,1,15.76,12.41Z"/><path class="cls-94" d="M15.59,12.72l.18-.17Z"/><path class="cls-31" d="M16.12,12.56v.16L16,12.53A.17.17,0,0,1,16.12,12.56Z"/><path class="cls-29" d="M16.35,13a.2.2,0,0,1-.06-.13l.16.13h-.1Z"/><path class="cls-108" d="M19.64,12.19A.47.47,0,0,0,19.7,12a.18.18,0,0,0,.15-.07v0l0,.05Z"/><path class="cls-92" d="M21.77,10.41l.19-.13.17.15a.92.92,0,0,1,0,.16l-.35,0h0Z"/><path class="cls-114" d="M21.24,11a.51.51,0,0,1,.17,0h.2v.21l0,0-.21,0h-.18A.76.76,0,0,0,21.24,11Z"/><path class="cls-9" d="M21.46,10.78a.26.26,0,0,1,0-.17l.13,0,0,.21Z"/><path class="cls-115" d="M21.6,10.78l0-.21h0l.21,0h0Z"/><path class="cls-116" d="M21.62,11.17V11h.22Z"/><path class="cls-74" d="M21.43,11.14h.21c0,.06,0,.11,0,.16l-.15,0,0,0A1,1,0,0,0,21.43,11.14Z"/><path class="cls-99" d="M13.08,13.38l.21,0-.18.18h0l0-.22Z"/><path class="cls-106" d="M13.08,13.39l0,.22h-.18c0-.06,0-.12,0-.17v0Z"/><path class="cls-63" d="M12.7,13.76a.94.94,0,0,0,0-.16h.2Z"/><path class="cls-69" d="M11.9,20.33c0-.06,0-.12,0-.17h.14v.17H11.9Z"/><path class="cls-8" d="M11.9,20.33h.15v.18h-.19A.47.47,0,0,1,11.9,20.33Z"/><path class="cls-48" d="M11.71,20.52l.15,0v.19a.21.21,0,0,0-.13,0l-.06,0Z"/><path class="cls-46" d="M11.74,20.71a.37.37,0,0,0,0,.15h-.19l.17-.18Z"/><path class="cls-27" d="M11.7,20.86h.19a.88.88,0,0,0,0,.16h0l-.17,0h0a1.09,1.09,0,0,0,0-.18Z"/><path class="cls-50" d="M21.26,11.51v-.2h.17l0,0a.4.4,0,0,1,0,.15Z"/><path class="cls-22" d="M10.1,22.8l-.14,0-.21,0h0v-.19h.36l0,0A.77.77,0,0,0,10.1,22.8Z"/><path class="cls-34" d="M10.28,22.63l-.16,0,0,0v-.16h.2a1,1,0,0,0,0,.17Z"/><path class="cls-117" d="M9.75,22.8l.21,0,0,.16-.16,0Z"/><path class="cls-69" d="M9.75,22.8l0,.23a.61.61,0,0,0,0,.14H9.61L9.39,23h0l.18-.17h.19Z"/><path class="cls-9" d="M6.39,21.92a.75.75,0,0,1,0-.15l.53-.19.17.17v.19l-.53.17h0l-.17-.17Z"/><path class="cls-31" d="M7.6,21.57l-.15.21-.08,0H7.28v-.19Z"/><path class="cls-9" d="M7.1,21.94v-.19h.18v0Z"/><path class="cls-118" d="M8,21.19l-.34.22,0,0v-.21L7.76,21H8Z"/><path class="cls-73" d="M7.6,21.57H7.27v-.2l.18-.14.17.15,0,0A.94.94,0,0,1,7.6,21.57Z"/><path class="cls-49" d="M8,21.19V21l.24,0a1,1,0,0,1-.07.15H8.07Z"/><path class="cls-61" d="M9.21,23.14,9,23.19Z"/><path class="cls-116" d="M1.48,22l.14,0,0,.18-.24,0Z"/><path class="cls-96" d="M3,23.51H2.85v-.17a.09.09,0,0,0,0-.14l.19.14A.75.75,0,0,1,3,23.51Z"/><path class="cls-14" d="M1.26,21.57a.92.92,0,0,0,0,.16v.19H1.08v-.18c0-.08,0-.16,0-.24A.31.31,0,0,1,1.26,21.57Z"/><path class="cls-40" d="M1.49,21.91a.32.32,0,0,0,0,.14l-.24.05v-.18h.16Z"/><path class="cls-73" d="M2.63,19.83V18.37l.23,0h0v1.24Z"/><path class="cls-21" d="M2.63,19.83l.22-.2H3L3.2,20l.14.36-.14.17H2.88a.18.18,0,0,1-.06-.14l-.12-.22,0-.17.06-.06-.1-.1Z"/><path class="cls-107" d="M3.06,17.51a.25.25,0,0,1,0-.17l.14,0,.19-.23a.76.76,0,0,1,0-.15l.16-.16,0,0h.14l.24.45-.38.3-.16.19h0l-.2,0Z"/><path class="cls-17" d="M2.68,18.21l.16-.37.06.07L3,18h.19l0,.48a.42.42,0,0,0-.14.06l-.18-.19h0Z"/><path class="cls-19" d="M3.21,18H3l-.12-.12-.06-.07L3,17.67H3.2l.2,0a.66.66,0,0,1,0,.15l-.14.2Z"/><path class="cls-27" d="M3.2,17.68H3a.49.49,0,0,1,.05-.16Z"/><path class="cls-69" d="M2.68,18.21l.17.18-.23,0Z"/><path class="cls-78" d="M2.64,19.82l.1.1L2.68,20A.14.14,0,0,1,2.64,19.82Z"/><path class="cls-98" d="M2.7,20.15l.12.22-.15,0Z"/><path class="cls-10" d="M1.42,21.93H1.26v-.19l.15,0A.43.43,0,0,1,1.42,21.93Z"/><path class="cls-46" d="M6.39,21.93l.17.17Z"/><path class="cls-73" d="M4.11,21.21l.16.16v.2H4.09l-.18-.18-.2,0h0a1.49,1.49,0,0,0,0-.21h.38Z"/><path class="cls-48" d="M3.91,21.39l.18.18H3.92S3.91,21.45,3.91,21.39Z"/><path class="cls-22" d="M4.27,21.57v-.2l.17.07Z"/><path class="cls-53" d="M5,21.75a.32.32,0,0,1,.17,0L5,21.93Z"/><path class="cls-26" d="M3.34,20.34l0,.17H3.2Z"/><path class="cls-27" d="M3,20.51H3.2l-.11.16A.44.44,0,0,1,3,20.51Z"/><path class="cls-30" d="M3.56,20.86h.18a1,1,0,0,0,0,.17H3.56Z"/><path class="cls-77" d="M3.56,21h.17v.18a1.49,1.49,0,0,1,0,.21l-.16,0a.29.29,0,0,1,0-.13Z"/><path class="cls-92" d="M23.9,8.66v.19a.77.77,0,0,1,0,.15l-.13,0-.19.2h0l-.21,0L23.22,9l.13-.18h.2l.18-.17h.17Z"/><path class="cls-40" d="M23.43,8.66l0-.11a.46.46,0,0,0,.16-.07h.17v.18h-.3Z"/><path class="cls-86" d="M21.78,7.39a.27.27,0,0,1-.15,0h-.07l0-.18V7.05h0l.2,0h0v.33Z"/><path class="cls-45" d="M23.22,9l.15.18.05.23h0l-.23-.06v-.2A.4.4,0,0,1,23.22,9Z"/><path class="cls-30" d="M23.19,9.16v.2L23,9.21Z"/><path class="cls-40" d="M23.43,8.66h.07c0,.06,0,.12.05.17h-.2Z"/><path class="cls-45" d="M21.61,7.61l-.11,0,.06-.23h.07Z"/><path class="cls-73" d="M22,7.26a.26.26,0,0,1,0,.15h-.09l-.08,0V7.23a.2.2,0,0,0,.13,0S22,7.23,22,7.26Z"/><path class="cls-119" d="M22,5.82h.17l.15.36v.18l-.06,0,.06.12V6.7H22V5.82Z"/><path class="cls-120" d="M22.3,6.87l-.13,0a.12.12,0,0,1-.09,0,.47.47,0,0,0,0-.16h.15A.47.47,0,0,1,22.3,6.87Z"/><path class="cls-22" d="M22.28,6.53l-.06-.12.06,0A.17.17,0,0,1,22.28,6.53Z"/><path class="cls-2" d="M23.91,8.06l.18.06h0V8.3l0,.23v0l-.23,0h0Z"/><path class="cls-104" d="M23.73,8.66V8.48h.17a1,1,0,0,0,0,.17h-.18Z"/><path class="cls-104" d="M23.56,8.48a.49.49,0,0,1,0-.17l.15,0,0,.21Z"/><path class="cls-121" d="M16.87,4.11l-.4.31V4.07h.17Z"/><path class="cls-27" d="M16.36,4.43a.25.25,0,0,1-.06.16h-.18a.78.78,0,0,1,0-.16Z"/><path class="cls-8" d="M16,4.8l-.2.18-.07-.25h0Z"/><path class="cls-45" d="M16.12,4.59h.18l-.18.19Z"/><path class="cls-21" d="M15.74,4.73l.07.25h0l-.24-.06a.39.39,0,0,0,0-.15h0Z"/><path class="cls-8" d="M16.87,4.11l-.22-.05V3.89h.18l0,.23Z"/><path class="cls-88" d="M15.38,7.42l1.09-.15v.14a.76.76,0,0,0,0,.15l-.21.06L16,7.6l-.19,0Z"/><path class="cls-77" d="M14.21,7.78V7.42h.15l.18.18h0l.23.16a.15.15,0,0,1,.11,0l0,.22h-.35Z"/><path class="cls-89" d="M21.56,7.42l-.06.23h0l-.18.19,0-.06,0,.06-.23-.07h-.2l.54-.53h.19Z"/><path class="cls-27" d="M17.37,7.94l.33.54h-.5l-.05,0,0-.18a1,1,0,0,0,0-.17L17.35,8Z"/><path class="cls-14" d="M16.48,7.55a.61.61,0,0,1,0-.14l.18-.14.35.15a.12.12,0,0,0-.08,0,.18.18,0,0,0-.09.13h0l-.18.16-.18,0,0,0A.55.55,0,0,0,16.48,7.55Z"/><path class="cls-21" d="M22.17,6.9l-.06.32-.14,0s0,0-.06-.07l-.13-.13h0l-.14-.18.13-.18H22l.12.16A.12.12,0,0,0,22.17,6.9Z"/><path class="cls-121" d="M17.68,9.18l-.15.52-.16,0h-.19V9.54l.18-.18Z"/><path class="cls-73" d="M19.13,9.72h-.2l.36-.37.19.2h0v.22a.32.32,0,0,0-.16,0Z"/><path class="cls-26" d="M17.68,9.18l-.32.18a.42.42,0,0,1-.16,0,.59.59,0,0,0,0-.13l0-.19.05,0h.49Z"/><path class="cls-74" d="M14.53,6.89h.19l0,.7h-.15V6.89Z"/><path class="cls-79" d="M15.38,7.42l.39.15a.86.86,0,0,0,0,.16l-.17,0-.28-.22A.15.15,0,0,1,15.38,7.42Z"/><path class="cls-114" d="M17,7.42l.19.16v.19l-.42.05h0l0-.24h0l.09-.13A.12.12,0,0,1,17,7.42Z"/><path class="cls-59" d="M15.31,7.56l.28.22,0,.14H15.4l-.17-.16V7.59l0,0Z"/><path class="cls-73" d="M19.47,9.17,19.65,9v.59a.35.35,0,0,0-.17,0h0Z"/><path class="cls-35" d="M17.54,8.48h.16v.35h-.17V8.65C17.53,8.59,17.54,8.53,17.54,8.48Z"/><path class="cls-17" d="M19.66,9.19V9l.18-.13v.33h-.17Z"/><path class="cls-84" d="M19.83,9.19V8.86c.07,0,1-.9,1.07-.91S20,9.07,20,9.18Z"/><path class="cls-20" d="M19.47,9.17v.37l-.19-.2Z"/><path class="cls-122" d="M20.56,8.3l.14-.36.05,0a.45.45,0,0,0,0,.16v.19h-.17Z"/><path class="cls-78" d="M15.06,6.18h-.18V6h.31Z"/><path class="cls-123" d="M20.87,7.76h.2V8h-.33l-.05,0Z"/><path class="cls-12" d="M17.18,7.77V7.58l.18.36,0,0h-.17Z"/><path class="cls-124" d="M14.88,8l0-.22.2-.11V8Z"/><path class="cls-60" d="M18.24,10.09l-.17.16V10.1Z"/><path class="cls-25" d="M18.07,10.1v.15l-.2,0a.33.33,0,0,1,0-.14A.22.22,0,0,1,18.07,10.1Z"/><path class="cls-35" d="M17.54,8.83h.17V9h-.16Z"/><path class="cls-3" d="M20.55,8.47l-.25.19Z"/><path class="cls-73" d="M20.56,8.3h.17l-.2.18Z"/><path class="cls-53" d="M15.06,7.77V7.62l.17,0v.18h-.17Z"/><path class="cls-99" d="M14.52,7.59h.16l.07.16Z"/><path class="cls-42" d="M16.65,7.27l-.18.14V7.27Z"/><path class="cls-124" d="M21.6,7.24h-.19l.18-.18A1.15,1.15,0,0,1,21.6,7.24Z"/><path class="cls-119" d="M21.64,6.89l.14.18-.2,0A.44.44,0,0,1,21.64,6.89Z"/><path class="cls-22" d="M22,6.71h-.19l.18-.2Z"/><path class="cls-74" d="M15.19,6h-.1l.13-.17.06,0A.12.12,0,0,1,15.19,6Z"/><path class="cls-69" d="M15.42,5.66l0,.19-.18,0-.06,0,.19-.18Z"/><path class="cls-34" d="M15.61,5.7l-.19,0V5.48h.2Z"/><path class="cls-39" d="M15.61,5.47h-.2V5.29h.21Z"/><path class="cls-99" d="M15.62,5.29h-.21V5.1h0l.17,0,.08.09A.07.07,0,0,1,15.62,5.29Z"/><path class="cls-25" d="M15.57,4.92l.24.06-.17.2-.08-.09a1,1,0,0,0,0-.17Z"/><path class="cls-89" d="M16.87,4.11l0-.23H17l.05,0Z"/><path class="cls-99" d="M17,3.88h-.17V3.7H17Z"/><path class="cls-88" d="M14.36,6.54l.17.35h-.18V6.53Z"/><path class="cls-60" d="M14.88,6v.18H14.7l0-.17Z"/><path class="cls-106" d="M14.65,6l0,.17h-.19V6l.07,0Z"/><path class="cls-116" d="M13.68,9.59l0-.22.22,0Z"/><path class="cls-106" d="M14,9.39l-.15,0,.2-.22Z"/><path class="cls-9" d="M14.23,9.05,14,9.24Z"/><path class="cls-29" d="M14.36,9l-.14,0-.05-.24h.19a.91.91,0,0,0,0,.17Z"/><path class="cls-48" d="M14.36,8.84h-.19V8.66h.18v.18Z"/><path class="cls-10" d="M14.35,8.48c0-.07,0-.15,0-.22l.13-.13h.18V8.3l0,.19h-.37Z"/><path class="cls-103" d="M14.52,8.13l-.13.13Z"/><path class="cls-99" d="M14.7,8.12h-.17V8h.17Z"/><path class="cls-77" d="M14.35,7.42H14.2l0-.37,0,0h.16Z"/><path class="cls-8" d="M14.35,8.48h.17l0,.2-.19,0h0Z"/><path class="cls-99" d="M14.35,7.06h-.16l0-.5.12,0v.53Z"/><path class="cls-106" d="M14.65,6h-.07a.32.32,0,0,1,0-.14.2.2,0,0,0,.13,0l.16.17h-.23Z"/><path class="cls-71" d="M14.88,6l-.16-.17a.77.77,0,0,1,0-.15l.16-.19.17-.19.13,0h.21v.35l-.19.18L15.09,6Z"/><path class="cls-48" d="M9,13.57l.21-.13.16-.22a.61.61,0,0,1,0-.14l.15,0,.06.07a.4.4,0,0,0,0,.15v.17l0,.23,0,0-.22.21,0,0L9.27,14l0,0L9,14.15H8.87l0-.41,0,0,.2-.21Z"/><path class="cls-9" d="M8.84,13.75l0,.41-.16.16H8.34v-.13L8.51,14l.18-.18Z"/><path class="cls-21" d="M7.4,17l-.1-.2h.51a.41.41,0,0,1,.16,0A.59.59,0,0,0,8,17l0,.05a.11.11,0,0,0-.1.1l0,.05-.17,0Z"/><path class="cls-6" d="M8.16,14.87,8,15l-.21-.2a.29.29,0,0,0,0-.16l0,0,.34-.16h.17Z"/><path class="cls-46" d="M8.33,17.18l.73-.08,0,.08-.7.14A.66.66,0,0,0,8.33,17.18Z"/><path class="cls-57" d="M8.33,17.18a.66.66,0,0,1,0,.14H7.94l-.15-.18,0-.05a.11.11,0,0,0,.1-.1L8,17Z"/><path class="cls-12" d="M8.16,14.87l.17-.38a.76.76,0,0,0,0-.15l0,0h.17l0,.25Z"/><path class="cls-60" d="M7.78,14.84,8,15a.75.75,0,0,1,0,.16H7.8L7.61,15a.4.4,0,0,1,0-.15A.32.32,0,0,1,7.78,14.84Z"/><path class="cls-26" d="M9,14.15,9.29,14a.27.27,0,0,1-.07.14Z"/><path class="cls-41" d="M8.55,14.57l0-.25h.2Z"/><path class="cls-1" d="M7.8,15.2H8l0,.18-.11,0L7.8,15.2Z"/><path class="cls-46" d="M9.22,17.15A.91.91,0,0,0,9.29,17a.14.14,0,0,0,.11-.1l0,.07,0,.06a.21.21,0,0,1,0,.11Z"/><path class="cls-125" d="M10.28,17.15a.45.45,0,0,0,0-.11l.17-.07h0v.89l-.2,0Z"/><path class="cls-26" d="M10.26,17.84l.2,0a.26.26,0,0,1,.15,0,.45.45,0,0,0,0,.16l-.05.34h-.13l-.21-.55Z"/><path class="cls-3" d="M10.64,18a.45.45,0,0,1,0-.16l.17-.2Z"/><path class="cls-5" d="M10.45,16.44a.34.34,0,0,1,.05-.14l.09.28Z"/><path class="cls-34" d="M10.45,16.79l.15,0-.14.15h0Z"/><path class="cls-8" d="M9.89,16.57l.21.05c0,.13,0,.26,0,.39a.47.47,0,0,0-.16,0l0-.4Z"/><path class="cls-46" d="M10.45,16.79V17l-.17.07C10.34,17,10.4,16.88,10.45,16.79Z"/><path class="cls-56" d="M9.93,17a.47.47,0,0,1,.16,0v.08l-.16.07,0,0a.91.91,0,0,0,0-.17Z"/><path class="cls-56" d="M9.89,16.57l0,.4H9.57l0,0a.32.32,0,0,1,0-.14Z"/><path class="cls-29" d="M10.13,13.08a.51.51,0,0,0,0,.17.34.34,0,0,1-.15.06Z"/><path class="cls-1" d="M9.75,13.26l.23,0a.78.78,0,0,1-.05.14l-.15,0,0,0a1,1,0,0,0,0-.17Z"/><path class="cls-31" d="M9.61,13.66l0-.23h.17l0,0,0,.15Z"/><path class="cls-50" d="M9.41,13.84l.22-.21s0,.11-.05.16Z"/><path class="cls-14" d="M9.27,14l.18-.22a1,1,0,0,1,0,.16A.18.18,0,0,1,9.27,14Z"/><path class="cls-18" d="M17.54,8.83V9h-.33V8.47h.16l.17.17Z"/><path class="cls-15" d="M17.18,8.31,17,8.25A.16.16,0,0,0,17,8.11l.06,0,0,0,.11,0,0,0A1,1,0,0,1,17.18,8.31Z"/><path class="cls-5" d="M13.52,9.76l.19-.19a.41.41,0,0,0,0,.16h0A.32.32,0,0,0,13.52,9.76Z"/><path class="cls-31" d="M15.56,10.92c0-.05,0-.1,0-.15h.2c0,.06,0,.12,0,.18h-.17Z"/><path class="cls-22" d="M15.59,11.13l-.22,0a.94.94,0,0,0,0-.16l.15,0,0,0Z"/><path class="cls-82" d="M15.4,11.09l-.2.21,0-.17Z"/><path class="cls-12" d="M8.16,14.49l-.34.16a.88.88,0,0,1,0-.16v-.17L8,14.16l.36,0v.13l0,0Z"/><path class="cls-57" d="M7.8,14.32v.17l-.53-.17h0l.18-.18h.18Z"/><path class="cls-63" d="M7.8,14.32l-.17-.18.35,0Z"/><path class="cls-49" d="M6.91,14.32a.38.38,0,0,0,0-.15l.36,0v.17H6.91Z"/><path class="cls-89" d="M7.27,14.32v-.17h.18Z"/><path class="cls-12" d="M9,13.56l-.2.21a1,1,0,0,0,0-.17Z"/><path class="cls-29" d="M13.52,9.75a.88.88,0,0,1,0,.15l-.15,0,0-.22Z"/><path class="cls-22" d="M13.11,10.26l-.14,0,0-.23.23,0A.75.75,0,0,1,13.11,10.26Z"/><path class="cls-21" d="M13.33,9.93a.83.83,0,0,1,0,.15l-.14,0,0-.23Z"/><path class="cls-29" d="M9.57,13.26a.4.4,0,0,1,0-.15l.15.15H9.57Z"/><path class="cls-3" d="M5.5,15.2h.18v.2h0l-.19.19H5.15v-.18l.16-.2H5.5Z"/><path class="cls-84" d="M6,14.67h.18v.2H6Z"/><path class="cls-49" d="M5.51,14.86a.76.76,0,0,1,.16,0V15h-.2A.8.8,0,0,1,5.51,14.86Z"/><path class="cls-126" d="M5.68,15v-.16a.75.75,0,0,1,.07.12Z"/><path class="cls-26" d="M6,14.85h.2L6,15Z"/><path class="cls-26" d="M5.5,15.2H5.31l0-.15a.33.33,0,0,1,.15,0Z"/><path class="cls-26" d="M5.69,15.4v-.2l.24,0Z"/><path class="cls-89" d="M7.62,14.69l-.53,0-.35-.14a.76.76,0,0,0,0-.15l.18,0h.36l.53.17a.88.88,0,0,0,0,.16l0,0A.2.2,0,0,0,7.62,14.69Z"/><path class="cls-127" d="M6.21,14.67a.92.92,0,0,1,0-.16l.17,0,.19.2H6.21Z"/><path class="cls-26" d="M6.74,14.5l.35.14H6.74Z"/><path class="cls-25" d="M23,9.54v.18h-.18V9.54H23Z"/><path class="cls-26" d="M22.64,9.52l.19-.19v.21h-.17Z"/><path class="cls-1" d="M23.42,9.42l-.05-.23.21,0a.88.88,0,0,0,0,.16A.39.39,0,0,1,23.42,9.42Z"/><path class="cls-86" d="M22.84,9.89h-.17V9.72h.18Z"/><path class="cls-69" d="M23.57,9.22l.19-.2a.94.94,0,0,0,0,.16Z"/><path class="cls-78" d="M24.08,8.3V8.12l.18.08a.33.33,0,0,0,0,.1h-.18Z"/><path class="cls-69" d="M24.08,8.3h.18v.18l-.14,0Z"/><path class="cls-34" d="M23.91,8.65a1,1,0,0,1,0-.17l.23,0a.22.22,0,0,1-.08.15Z"/><path class="cls-60" d="M19,10.25c0,.06,0,.11-.05.16a.35.35,0,0,1-.14,0Z"/><path class="cls-125" d="M17.36,10.27l.52,0v.32l-.52-.12Z"/><path class="cls-73" d="M19.14,10.12l-.19.14.18-.37h0Z"/><path class="cls-125" d="M18.56,10.36a.2.2,0,0,1-.13,0Z"/><path class="cls-48" d="M19.13,9.72h.18l0,.23h0l-.23,0h0Z"/><path class="cls-128" d="M16.79,10.62h-.07l-.07,0v-.18H17Z"/><path class="cls-26" d="M17.36,10.27v.16H17v-.17l.2,0Z"/><path class="cls-129" d="M15.59,11.13V11h.35l0,.2,0,0-.2.21h0l-.2,0Z"/><path class="cls-63" d="M16,11.16l0-.2v-.18h.18l0,.22Z"/><path class="cls-130" d="M16.14,11l0-.22h0l.15,0,.06.06,0,.15Z"/><path class="cls-50" d="M15.78,11.35l.2-.21a1,1,0,0,0,0,.17Z"/><path class="cls-20" d="M16.65,10.42v.18l0,0-.2.1-.14.09-.06-.06-.15-.15h0l0-.2h0l.2,0,.18-.18h.18Z"/><path class="cls-51" d="M16.47,10.72l.2-.1a.61.61,0,0,0-.05.12Z"/><path class="cls-20" d="M9.76,19.09l.15-.36h.37v0L10,19.1Z"/><path class="cls-29" d="M10.46,18.58c-.06.05-.11.11-.17.17v-.36h.18Z"/><path class="cls-3" d="M10.46,18.58v-.19h.13Z"/><path class="cls-3" d="M9.76,19.09H10l0,.17a.47.47,0,0,1-.17,0A.22.22,0,0,1,9.76,19.09Z"/><path class="cls-69" d="M9.73,19.25a.47.47,0,0,0,.17,0,.57.57,0,0,1,0,.18l-.12,0-.08-.23Z"/><path class="cls-84" d="M22.11,10.24l.05-.17h.15Z"/><path class="cls-43" d="M22.66,9.89c0,.06,0,.12,0,.18h-.18V9.9h.17Z"/><path class="cls-42" d="M22.31,10.07h-.15a.3.3,0,0,1,0-.16l.15,0,0,0Z"/><path class="cls-49" d="M22.31,9.71l.15,0,0,0v.17h-.18l0,0s0-.1,0-.16Z"/><path class="cls-48" d="M21.42,11.31h-.34l0-.21h0l.21,0h.18A1.09,1.09,0,0,1,21.42,11.31Z"/><path class="cls-89" d="M10.61,21.56l.36-.17.21.23v.13h0l-.18.18h0a.51.51,0,0,0-.17,0v-.21Z"/><path class="cls-131" d="M11.18,21.62,11,21.39l.35-.36h.2v.2h0l-.2.19a.76.76,0,0,0,0,.15Z"/><path class="cls-74" d="M11.53,21.24V21h.18c0,.05,0,.11,0,.16h0Z"/><path class="cls-53" d="M11.35,21.42l.2-.19c0,.05,0,.1,0,.16Z"/><path class="cls-9" d="M10.3,22.46h-.2v-.19h.3a.12.12,0,0,0,.1,0,.75.75,0,0,0,0,.16H10.3Z"/><path class="cls-132" d="M10.67,22.12a1,1,0,0,0,0,.16.39.39,0,0,1-.15,0,.12.12,0,0,1-.1,0Z"/><path class="cls-31" d="M21.57,10.58a.83.83,0,0,1,0-.15l.16,0v.19Z"/><path class="cls-42" d="M21.25,11.13l-.21,0a.83.83,0,0,1,0-.15.29.29,0,0,1,.16,0A.76.76,0,0,1,21.25,11.13Z"/><path class="cls-73" d="M11.69,21h-.17v-.19h.19A1.09,1.09,0,0,1,11.69,21Z"/><path class="cls-20" d="M10.1,22.27v.35H9.93l-.15-.18Z"/><path class="cls-117" d="M9.78,22.45l.15.18H9.74A.35.35,0,0,1,9.78,22.45Z"/><path class="cls-117" d="M9.56,22.8l.18-.18c0,.07,0,.13,0,.19Z"/><path class="cls-117" d="M9.38,23l.18-.17Z"/><path class="cls-26" d="M7.09,21.75l-.17-.17H7a.34.34,0,0,1,0,.17Z"/><path class="cls-15" d="M7.09,21.75a.34.34,0,0,0,0-.17h.23v.17Z"/><path class="cls-69" d="M10.67,22.12l-.27.16h-.12v-.2l.22-.33h.32V22s0,.09,0,.14Z"/><path class="cls-27" d="M10.81,21.75h-.32l.12-.19Z"/><path class="cls-8" d="M11.51,20.85V21h-.2Z"/><path class="cls-6" d="M10.27,22.08v.2h-.19Z"/><path class="cls-100" d="M8.52,20.87,8.34,21a.27.27,0,0,1-.12,0L8,21H7.76L8.67,20l.06,0,.14.16,0,.22,0,0-.22.19,0,0-.2.24A.22.22,0,0,1,8.52,20.87Z"/><path class="cls-86" d="M7.45,21.23a.31.31,0,0,1,.16-.06v.21Z"/><path class="cls-71" d="M7.27,21.57H6.92l.35-.2Z"/><path class="cls-40" d="M3,19.62H2.85v-.89h0l.15.18,0,.69Z"/><path class="cls-133" d="M2.85,18.39l.18.19a.15.15,0,0,1,0,.16H2.85Z"/><path class="cls-15" d="M3.18,19.65l0,.33L3,19.62h.07Z"/><path class="cls-9" d="M4.28,17l-.35.22-.24-.45h0l.21,0,.38,0Z"/><path class="cls-63" d="M3.2,17.15l.16-.06-.19.23A.51.51,0,0,0,3.2,17.15Z"/><path class="cls-26" d="M3.55,17.51l-.16.19Z"/><path class="cls-26" d="M2.9,17.91,3,18Z"/><path class="cls-46" d="M3.35,17.85l-.14.2Z"/><path class="cls-84" d="M4.29,16.81l-.38,0v-.22a.33.33,0,0,1,0-.14H4l.23,0v.37Z"/><path class="cls-63" d="M3.9,16.57v.22l-.21,0a.45.45,0,0,1,0-.16Z"/><path class="cls-57" d="M9.22,17.15h.53v.15a.27.27,0,0,1-.15,0l-.2.14-.89.2-.19-.16h0a1.28,1.28,0,0,0,0-.19h0l.7-.14Z"/><path class="cls-134" d="M5.15,15.56h.18v.19h0l-.18.19-.37.51a.5.5,0,0,1-.13,0l0-.21-.23-.2a1.42,1.42,0,0,1,.05-.16h.13l.21-.21s0-.1,0-.15h.13Z"/><path class="cls-80" d="M9.19,19.79l.38-.5v.16l0,.25s0,.07,0,.11l0,0h-.3A.32.32,0,0,0,9.19,19.79Z"/><path class="cls-3" d="M10.46,18.38h-.18l-.15-.17v-.34l.13-.05Z"/><path class="cls-3" d="M10.28,18.39v.17H10l.13-.19Z"/><path class="cls-21" d="M8.67,20,9,19.82V20H8.86l-.13,0Z"/><path class="cls-78" d="M5.51,15.58l.19-.19,0,.14Z"/><path class="cls-71" d="M5.34,15.75v-.19h.19Z"/><path class="cls-40" d="M5.16,15.93l.18-.19Z"/><path class="cls-26" d="M7.45,16.79H7.3l-.06-.18.06,0h.15Z"/><path class="cls-38" d="M7.4,17l.22.13Z"/><path class="cls-22" d="M9.75,17.3v-.15h.17l0,0a.45.45,0,0,1,0,.16H9.83Z"/><path class="cls-26" d="M7.94,17.34h.22v.15Z"/><path class="cls-79" d="M8.16,17.48v-.15h.17a1.28,1.28,0,0,1,0,.19Z"/><path class="cls-29" d="M9.4,17.47l.2-.14Z"/><path class="cls-53" d="M8.32,17.51l.19.16Z"/><path class="cls-42" d="M10.28,18.39h-.19a.94.94,0,0,1,0-.16Z"/><path class="cls-35" d="M10,18.57h.14v.18H9.91A.49.49,0,0,1,10,18.57Z"/><path class="cls-3" d="M9.57,19.45v-.16a.19.19,0,0,1,.16,0l.08.23h0Z"/><path class="cls-15" d="M9,20v-.16a.21.21,0,0,1,.15,0,.32.32,0,0,1,.09,0,1.64,1.64,0,0,0,0,.22l0,0L9,20Z"/><path class="cls-26" d="M3.73,21a1,1,0,0,1,0-.17l.18.16v0Z"/><path class="cls-53" d="M4.11,21.21h-.2V21Z"/><path class="cls-99" d="M3.91,21.05v.17H3.73V21Z"/><path class="cls-29" d="M19.65,9.58V9.36H20l-.16.31h-.15Z"/><path class="cls-63" d="M20,9.36h-.07a1.54,1.54,0,0,1-.05-.17H20Z"/><path class="cls-74" d="M21,8.13l-.14.14a.75.75,0,0,1,0-.15Z"/><path class="cls-48" d="M20.9,8.12a.75.75,0,0,0,0,.15l-.17,0a1.21,1.21,0,0,1,0-.19h.18Z"/><path class="cls-99" d="M21,8.13H20.9V8h.18A1.36,1.36,0,0,1,21,8.13Z"/><path class="cls-39" d="M21.08,8V7.77l.23.07Z"/><path class="cls-25" d="M21.31,7.84l.18-.19Z"/><path class="cls-26" d="M19.65,9.58v.1l-.06.18a.1.1,0,0,0-.12.09.07.07,0,0,1,0-.12l0-.07V9.54A.35.35,0,0,1,19.65,9.58Z"/><path class="cls-3" d="M23.55,8.83c0-.05,0-.11-.05-.17h.23Z"/><path class="cls-26" d="M22.46,9.69l.18-.17,0,0a1.08,1.08,0,0,0,0,.18h-.18Z"/><path class="cls-34" d="M21.78,7.06l.13.13a.2.2,0,0,1-.13,0Z"/><path class="cls-26" d="M22.08,6.87,22,6.71h.16A.47.47,0,0,1,22.08,6.87Z"/><path class="cls-14" d="M15.39,5.11a.83.83,0,0,1,0-.15l.15,0a1,1,0,0,1,0,.17Z"/><path class="cls-76" d="M16.32,7.75s0-.09-.05-.13l.21-.06a.47.47,0,0,1,0,.17Z"/><path class="cls-59" d="M16,7.6a.78.78,0,0,0-.05.14h-.15a.86.86,0,0,1,0-.16Z"/><path class="cls-99" d="M14.35,7.42V7.06h.18V7.6Z"/><path class="cls-119" d="M14.7,8.12V8h.18v.17Z"/><path class="cls-86" d="M17.53,8.65l-.17-.17h.18S17.53,8.59,17.53,8.65Z"/><path class="cls-15" d="M17.18,8h.17l-.15.18,0,0A.44.44,0,0,0,17.18,8Z"/><path class="cls-26" d="M16.78,7.83a.14.14,0,0,1-.13-.08l.18-.16Z"/><path class="cls-26" d="M16.92,7.46l-.09.13A.18.18,0,0,1,16.92,7.46Z"/><path class="cls-29" d="M17.37,9.72a1,1,0,0,0,0,.17h0l-.16,0c0-.07,0-.13,0-.19h.19Z"/><path class="cls-25" d="M17.18,9.54v.18H17l0-.23h0l.23,0Z"/><path class="cls-8" d="M17.2,9.32a.42.42,0,0,0,.16,0l-.18.18h0Z"/><path class="cls-78" d="M19.47,9.76l0,.07-.14.12,0-.23A.32.32,0,0,1,19.47,9.76Z"/><path class="cls-109" d="M17.2,9.32l0,.22-.23,0,.11-.27a.27.27,0,0,0,.12,0A.59.59,0,0,1,17.2,9.32Z"/><path class="cls-92" d="M14.53,7.06h-.18V6.89h.18Z"/><path class="cls-135" d="M17.2,10.23l-.2,0h0v-.18h.22A.32.32,0,0,0,17.2,10.23Z"/><path class="cls-136" d="M17.18,8a.44.44,0,0,1,0,.16l-.11,0L16.82,8a.31.31,0,0,1-.06-.13l.42-.05Z"/><path class="cls-14" d="M15.23,7.77l.17.16h-.1a.33.33,0,0,1-.07-.16Z"/><path class="cls-3" d="M19.84,9.19a1.54,1.54,0,0,0,.05.17h-.23V9.19Z"/><path class="cls-40" d="M20.9,8v.18h-.18a.45.45,0,0,1,0-.16Z"/><path class="cls-86" d="M14.88,8.12V8h.18l0,.24-.16-.07Z"/><path class="cls-41" d="M15.23,7.77a.33.33,0,0,0,.07.16l-.24,0h0V7.77Z"/><path class="cls-89" d="M15.25,5.13l.15,0v.19H15.2A.88.88,0,0,1,15.25,5.13Z"/><path class="cls-42" d="M14.53,8.83h-.18V8.66l.19,0h0c0,.05,0,.1,0,.15Z"/><path class="cls-26" d="M14.54,8.68l0-.2h.2l0,0a.77.77,0,0,0,0,.15h0l-.15,0Z"/><path class="cls-78" d="M14.72,8.49l0-.19.22,0a.32.32,0,0,0,0,.14h0l-.15,0Z"/><path class="cls-25" d="M14.92,8.35l-.22,0V8.12h.18l0,.22Z"/><path class="cls-12" d="M9.57,13.26h.18a1,1,0,0,1,0,.17H9.57Z"/><path class="cls-86" d="M7.45,16.79v-.17h.18v.17Z"/><path class="cls-71" d="M7.63,16.79v-.17h.14l.06,0,0,.18Z"/><path class="cls-49" d="M7.94,17a.11.11,0,0,1-.1.1A.11.11,0,0,1,7.94,17Z"/><path class="cls-31" d="M8.16,14.49l.16-.15a.76.76,0,0,1,0,.15H8.16Z"/><path class="cls-14" d="M7.27,16.45l-.14-.54.32-.35h.18l0,.22a.24.24,0,0,1-.05.14l-.15.17h0l-.18.17v.19Z"/><path class="cls-14" d="M7.63,16.62H7.3l0-.18v0l.17-.17v-.17h.14l0,.34v.19Z"/><path class="cls-48" d="M7.65,15.77l0-.22h.15l0,0,.06,0-.09.17Z"/><path class="cls-49" d="M7.59,16.09H7.45l.15-.17A.23.23,0,0,1,7.59,16.09Z"/><path class="cls-86" d="M7.62,16.62v-.19l.14.05a.2.2,0,0,1,0,.15Z"/><path class="cls-9" d="M7.45,15.2,7.61,15l.19.18H7.45Z"/><path class="cls-48" d="M7.62,15.2H7.8l.07.23h0l-.23,0Z"/><path class="cls-22" d="M7.63,15.38l.23,0a.16.16,0,0,1-.08.14H7.63v-.18Z"/><path class="cls-53" d="M9.57,17.15H9.43a.21.21,0,0,0,0-.11l.15-.11,0,0Z"/><path class="cls-3" d="M9.57,17.15V17h.36a.91.91,0,0,1,0,.17H9.57Z"/><path class="cls-26" d="M16.79,9.68a.32.32,0,0,1,0-.14.44.44,0,0,1,.15,0l0,.23h-.17Z"/><path class="cls-79" d="M15.06,8l.24,0h.08l-.33.4a.08.08,0,0,0,0-.12l0,0Z"/><path class="cls-69" d="M16.29,10.43l-.2,0a.78.78,0,0,0,0-.16l.16,0,0,0A1.09,1.09,0,0,1,16.29,10.43Z"/><path class="cls-49" d="M16.1,10.4l0,.2h-.18l0,0a.88.88,0,0,1,0-.16Z"/><path class="cls-31" d="M15.76,10.77s0-.1,0-.15a.28.28,0,0,1,.15,0l0,0v.18h-.18Z"/><path class="cls-29" d="M16.29,10.07l.15,0,0,0v.18H16.3l0,0A.77.77,0,0,1,16.29,10.07Z"/><path class="cls-34" d="M16.47,9.89a.4.4,0,0,1,.15,0l0,0v.17h-.18l0,0Z"/><path class="cls-130" d="M15.77,10.78h.17V11h-.18C15.76,10.9,15.77,10.84,15.77,10.78Z"/><path class="cls-38" d="M5.32,15.18l-.16.2h0s0-.11,0-.16h0A.47.47,0,0,0,5.32,15.18Z"/><path class="cls-74" d="M4.78,15.69l-.21.21,0-.18Z"/><path class="cls-57" d="M4.39,16.06l.23.2H4.27l0-.05a.35.35,0,0,1,0-.14Z"/><path class="cls-29" d="M4.26,16.44l-.23,0c0-.05,0-.11,0-.16l.15,0,0,.05C4.27,16.33,4.26,16.38,4.26,16.44Z"/><path class="cls-48" d="M7.45,15.56l-.32.35.14-.35Z"/><path class="cls-27" d="M6.21,14.67h.37l-.36.19Z"/><path class="cls-14" d="M7.62,15.2v.18H7.32l.13-.18Z"/><path class="cls-29" d="M7.32,15.38h.13v.18H7.27Z"/><path class="cls-14" d="M4.92,15.54A.44.44,0,0,1,5,15.38h.18v.18Z"/><path class="cls-6" d="M22.67,9.72a1.08,1.08,0,0,1,0-.18h.17v.18h-.17Z"/><path class="cls-32" d="M22.49,9.72h.17v.17h-.18Z"/><path class="cls-78" d="M19.13,9.89l.23,0-.22.18Z"/><path class="cls-12" d="M16.65,10.42v-.35h.18v.35Z"/><path class="cls-107" d="M16.83,10.42v-.17H17v.17Z"/><path class="cls-99" d="M15.94,10.78V10.6h.18v.18h-.18Z"/><path class="cls-69" d="M16.12,10.78V10.6l.15.15Z"/><path class="cls-51" d="M16.3,10.25h.17l-.18.18A1.09,1.09,0,0,0,16.3,10.25Z"/><path class="cls-46" d="M16.65,10.07v.18h-.18v-.18Z"/><path class="cls-41" d="M10.1,18.74v-.18h.18v.17Z"/><path class="cls-35" d="M9.75,19.63a.59.59,0,0,1-.16.07l0-.25.23,0A.44.44,0,0,1,9.75,19.63Z"/><path class="cls-26" d="M8.92,20.36a.88.88,0,0,1-.05.15l-.16,0Z"/><path class="cls-26" d="M8.53,20.76l.2-.24a1,1,0,0,1,0,.17Z"/><path class="cls-14" d="M8.73,20l.13,0v.18h0Z"/><path class="cls-34" d="M9.05,20.34l-.16,0,0-.22h0l.22.06Z"/><path class="cls-73" d="M3,18.74v.18l-.15-.18Z"/><path class="cls-90" d="M4.26,16.44c0-.06,0-.11,0-.17h.35l0,.21h0l-.23.15H4.27Z"/><path class="cls-14" d="M4.27,16.62h.18a1,1,0,0,0,0,.17h0l-.17,0Z"/><path class="cls-103" d="M9.45,19.82c-.07.07-.13.15-.19.22a1.64,1.64,0,0,1,0-.22Z"/><path class="cls-41" d="M9.08,20.22l-.22-.06V20H9l0,.24Z"/><path class="cls-134" d="M4.43,16.62l.23-.15a.78.78,0,0,0,0,.16l0,0H4.43Z"/><path class="cls-74" d="M9.08,20.22,9,20l.24,0a.35.35,0,0,1-.06.14A.59.59,0,0,1,9.08,20.22Z"/><path class="cls-83" d="M17,9.72h.18c0,.06,0,.12,0,.19H17V9.72Z"/><path class="cls-69" d="M17,10.25h-.17v-.18H17Z"/><path class="cls-20" d="M17,9.89h.2c0,.06,0,.12,0,.17H17V9.89Z"/><path class="cls-29" d="M15.07,8.22l-.16.12,0-.22.16.07Z"/><path class="cls-15" d="M7.45,15.56v-.18h.18v.18Z"/><path class="cls-49" d="M7.45,16.09v.17H7.27Z"/><path class="cls-86" d="M7.27,16.26h.18l-.17.17Z"/><path class="cls-9" d="M16.64,9.71a.4.4,0,0,1,.15,0l0,0v.17h-.18l0,0A.77.77,0,0,1,16.64,9.71Z"/><path class="cls-17" d="M16.83,9.89V9.72H17v.17h-.17Z"/><path class="cls-4" d="M16.65,9.9h.18v.18h-.18Z"/><path class="cls-48" d="M16.83,10.07V9.89H17v.18h-.17Z"/></g></g></g></g></g></svg>