<svg xmlns="http://www.w3.org/2000/svg" viewBox="0 0 349.84 292.32"><defs><style>.cls-1,.cls-5{fill:#5293cf;}.cls-2,.cls-4{fill:#fff;}.cls-3{fill:none;}.cls-4{fill-rule:evenodd;}.cls-5{stroke:#fff;stroke-miterlimit:10;}</style></defs><title>survey-cta</title><g id="Layer_2" data-name="Layer 2"><g id="Brain_Tumor_Symptoms_Desktop" data-name="Brain Tumor Symptoms Desktop"><g id="_Main_Section_" data-name="&lt;Main Section&gt;"><g id="Blue_Rectangle_Arrow" data-name="Blue Rectangle &amp; Arrow"><polygon class="cls-1" points="349.84 292.32 0 263.13 0 0 349.84 29.19 349.84 292.32"/><path class="cls-2" d="M74.66,71.43a24.3,24.3,0,0,1,5.72-.64c3.13,0,5.15.69,6.66,2.24A7.91,7.91,0,0,1,85,85.23v.1c2.3.73,5,3.15,5,7.72a9.46,9.46,0,0,1-2,6.17c-1.69,2-4.43,2.88-8.38,2.88a28.08,28.08,0,0,1-4.86-.37Zm3.13,12.62h2.84a4.92,4.92,0,0,0,5.26-5.17c0-3.61-2.16-5-5.33-5a10.56,10.56,0,0,0-2.77.27Zm0,14.76a13.83,13.83,0,0,0,2.63.18c3.23,0,6.22-1.51,6.22-6,0-4.2-2.84-5.94-6.26-5.94H77.79Z"/><path class="cls-2" d="M94.17,71.43a25.93,25.93,0,0,1,6-.64c3.35,0,5.51.78,7,2.52a8.8,8.8,0,0,1,1.91,5.85c0,4.06-2,6.76-4.58,7.86v.13c1.88.83,3,3,3.57,6.22a59.66,59.66,0,0,0,1.87,8.45h-3.24a46.9,46.9,0,0,1-1.62-7.35c-.72-4.25-2-5.85-4.86-6h-3v13.34H94.17Zm3.13,14h3.2c3.35,0,5.47-2.33,5.47-5.85,0-4-2.26-5.71-5.58-5.75a10.36,10.36,0,0,0-3.09.36Z"/><path class="cls-2" d="M117.64,92.14l-2.52,9.68h-3.24L120.12,71h3.78l8.28,30.8h-3.35l-2.59-9.68Zm8-3.11-2.37-8.87c-.54-2-.9-3.84-1.26-5.62h-.07c-.36,1.83-.76,3.7-1.23,5.58L118.29,89Z"/><path class="cls-2" d="M138.88,71v30.8h-3.13V71Z"/><path class="cls-2" d="M144.35,101.82V71h3.42l7.78,15.59a98.13,98.13,0,0,1,4.35,10l.07,0c-.29-4.11-.36-7.86-.36-12.66V71h2.95v30.8H159.4l-7.71-15.63a105.78,105.78,0,0,1-4.53-10.28l-.11,0c.18,3.88.25,7.58.25,12.7v13.16Z"/><path class="cls-2" d="M93.05,131.52H85.67v-3.38h18v3.38H96.22v27.42H93.05Z"/><path class="cls-2" d="M109.47,128.14v18.24c0,6.9,2.41,9.82,5.65,9.82,3.6,0,5.9-3,5.9-9.82V128.14h3.17v18c0,9.46-3.92,13.35-9.18,13.35-5,0-8.71-3.61-8.71-13.17V128.14Z"/><path class="cls-2" d="M150.07,145.42c-.18-4.3-.39-9.46-.36-13.3h-.11c-.82,3.61-1.83,7.45-3.06,11.7l-4.28,14.94h-2.37L136,144.09c-1.15-4.34-2.12-8.32-2.81-12h-.07c-.07,3.84-.25,9-.47,13.62l-.64,13.2h-3l1.69-30.8h4l4.14,14.9c1,3.79,1.83,7.18,2.44,10.37h.11c.61-3.1,1.48-6.49,2.56-10.37l4.32-14.9h4l1.51,30.8h-3.06Z"/><path class="cls-2" d="M179.3,143.22c0,10.61-5.07,16.23-11.26,16.23-6.41,0-10.91-6.31-10.91-15.63,0-9.78,4.79-16.18,11.27-16.18S179.3,134.08,179.3,143.22Zm-18.82.51c0,6.58,2.81,12.47,7.74,12.47s7.77-5.8,7.77-12.79c0-6.13-2.52-12.53-7.74-12.53S160.48,137,160.48,143.73Z"/><path class="cls-2" d="M183.37,128.55a26.08,26.08,0,0,1,6-.64c3.34,0,5.5.78,7,2.52a8.75,8.75,0,0,1,1.91,5.85c0,4.06-2,6.76-4.57,7.86v.13c1.87.83,3,3,3.56,6.22a59.16,59.16,0,0,0,1.88,8.45h-3.24a46.9,46.9,0,0,1-1.62-7.35c-.72-4.25-2-5.85-4.86-6h-3v13.34h-3.14Zm3.14,14h3.2c3.35,0,5.47-2.33,5.47-5.85,0-4-2.27-5.71-5.58-5.75a10.36,10.36,0,0,0-3.09.36Z"/><path class="cls-2" d="M110.44,198.56a9.07,9.07,0,0,0,4.71,1.69c1.66,0,2.34-.73,2.34-1.87s-.54-1.69-2.59-2.56c-3.63-1.55-5-4.07-5-6.72a6.93,6.93,0,0,1,7.16-7.31,9.7,9.7,0,0,1,5,1.28l-1,4.8a7.29,7.29,0,0,0-3.82-1.28c-1.33,0-2.09.68-2.09,1.83s.69,1.6,2.85,2.56c3.35,1.46,4.75,3.61,4.79,6.9,0,4.15-2.6,7.22-7.64,7.22a10.25,10.25,0,0,1-5.68-1.56Z"/><path class="cls-2" d="M142.69,197.46c0,2.93.08,5.31.15,7.18h-4.75l-.26-3.15h-.1a6.16,6.16,0,0,1-5.51,3.65c-3.57,0-6.19-2.83-6.19-9.73V182.29h5.5v12c0,3.25.83,5.21,2.74,5.21A3.1,3.1,0,0,0,137,197.1a5,5,0,0,0,.18-1.51v-13.3h5.5Z"/><path class="cls-2" d="M147.09,189.65c0-3.29-.08-5.44-.15-7.36h4.72l.18,4.11H152c.9-3.24,3.06-4.61,4.75-4.61a4.59,4.59,0,0,1,1.16.09v6.54a5.86,5.86,0,0,0-1.48-.19c-2,0-3.38,1.37-3.74,3.52a9.47,9.47,0,0,0-.11,1.56v11.33h-5.47Z"/><path class="cls-2" d="M165.48,182.29l2.38,10.38c.43,1.87.75,3.65,1,5.43h.1c.29-1.82.58-3.51,1-5.43l2.27-10.38H178l-6.55,22.35H166l-6.41-22.35Z"/><path class="cls-2" d="M184.17,195.68c.18,2.88,2.41,4.25,5,4.25A12.57,12.57,0,0,0,194,199l.72,4.71a14.15,14.15,0,0,1-6.37,1.37c-6,0-9.39-4.39-9.39-11.38,0-5.67,2.77-11.93,8.89-11.93,5.69,0,7.84,5.62,7.84,11.15a19.42,19.42,0,0,1-.18,2.74Zm6.44-4.75c0-1.69-.58-4.53-3.1-4.53-2.3,0-3.24,2.66-3.38,4.53Z"/><path class="cls-2" d="M202.85,182.29l2.63,11c.29,1.33.65,3,.86,4.16h.11c.25-1.19.54-2.88.79-4.16l2.16-11h5.87L211.16,197c-2.52,8.86-4.21,12.43-6.19,14.67a9.2,9.2,0,0,1-5.29,3.06l-1.15-5.9a6,6,0,0,0,2.38-1.18,7.38,7.38,0,0,0,2.26-2.79,2.16,2.16,0,0,0,.29-1,3,3,0,0,0-.25-1.14l-6.44-20.43Z"/><g id="_Arrow_Group_" data-name="&lt;Arrow Group&gt;"><path class="cls-3" d="M189.5,84.06c.42-.72,1-1.65,1.56-2.48s1.16-1.71,1.76-2.56c1.22-1.69,2.49-3.35,3.82-5l-11.56-9.56c-1.55,1.87-3,3.8-4.44,5.77-.71,1-1.41,2-2.08,3s-1.33,2-2,3.25Z"/><path class="cls-4" d="M188.25,71.71l1.19.92c.51-.65,1-1.32,1.54-2l-1.16-.94C189.28,70.38,188.77,71.05,188.25,71.71Z"/><path class="cls-4" d="M185.57,75.37l1.23.86c.48-.68,1-1.36,1.45-2l-1.2-.89C186.55,74,186.05,74.68,185.57,75.37Z"/><path class="cls-4" d="M183.08,79.14l1.28.79c.43-.7.88-1.4,1.34-2.09L184.45,77C184,77.72,183.53,78.42,183.08,79.14Z"/><path class="cls-3" d="M196.64,74.07a81.78,81.78,0,0,1,8.57-9l-10-11.19a98.23,98.23,0,0,0-10.14,10.59Z"/><path class="cls-4" d="M197.28,61.53l1,1.08c.6-.58,1.19-1.16,1.81-1.71l-1-1.1C198.48,60.36,197.89,61,197.28,61.53Z"/><path class="cls-4" d="M194.11,64.78l1.1,1c.56-.61,1.13-1.21,1.72-1.8l-1.07-1C195.26,63.55,194.68,64.16,194.11,64.78Z"/><path class="cls-4" d="M191.12,68.16l1.14,1c.54-.64,1.08-1.27,1.63-1.88l-1.12-1C192.21,66.88,191.66,67.52,191.12,68.16Z"/><path class="cls-3" d="M205.21,65.11A61.7,61.7,0,0,1,214.88,58L207.3,45a77,77,0,0,0-12.08,8.9Z"/><path class="cls-4" d="M207.83,52.92l.83,1.25c.67-.48,1.39-.89,2.09-1.33L210,51.56C209.25,52,208.52,52.44,207.83,52.92Z"/><polygon class="cls-4" points="204.13 55.56 205.05 56.75 207.04 55.28 206.17 54.06 204.13 55.56"/><path class="cls-4" d="M200.63,58.44l1,1.13c.63-.53,1.25-1.09,1.9-1.6l-1-1.17C201.91,57.33,201.28,57.89,200.63,58.44Z"/><path class="cls-3" d="M214.88,58a43.79,43.79,0,0,1,10.55-4.46L221.63,39a58.35,58.35,0,0,0-14.33,6Z"/><path class="cls-4" d="M220,46.78l.49,1.41c.77-.3,1.57-.49,2.35-.74L222.43,46C221.62,46.27,220.79,46.46,220,46.78Z"/><polygon class="cls-4" points="215.77 48.47 216.39 49.83 218.66 48.86 218.1 47.47 215.77 48.47"/><path class="cls-4" d="M211.73,50.53l.74,1.31c.72-.4,1.43-.81,2.17-1.16L214,49.34C213.2,49.7,212.47,50.12,211.73,50.53Z"/><path class="cls-3" d="M225.43,53.5a34.45,34.45,0,0,1,11-1l1.13-15A49.32,49.32,0,0,0,221.63,39Z"/><path class="cls-4" d="M233.44,44.38v1.5l1.23,0,1.23.07.07-1.5-1.27-.07Z"/><polygon class="cls-4" points="228.88 44.67 229.07 46.16 231.51 45.94 231.42 44.44 228.88 44.67"/><path class="cls-4" d="M224.41,45.5l.34,1.46c.8-.18,1.6-.39,2.41-.5L226.9,45C226.06,45.1,225.24,45.31,224.41,45.5Z"/><path class="cls-3" d="M236.39,52.49a39.9,39.9,0,0,1,11,2.56l5.34-14a54.08,54.08,0,0,0-15.25-3.5Z"/><path class="cls-4" d="M246.93,46.4l-.44,1.43c.79.26,1.58.49,2.34.79l.51-1.42C248.55,46.9,247.74,46.66,246.93,46.4Z"/><path class="cls-4" d="M242.52,45.27l-.3,1.47c.8.17,1.6.33,2.39.56l.38-1.45C244.18,45.61,243.35,45.45,242.52,45.27Z"/><path class="cls-4" d="M238,44.57l-.15,1.49c.81.11,1.63.17,2.43.33l.24-1.48C239.72,44.75,238.87,44.68,238,44.57Z"/><path class="cls-3" d="M247.43,55.05a50.08,50.08,0,0,1,10.38,5.48l8.48-12.37A64.6,64.6,0,0,0,252.77,41Z"/><polygon class="cls-4" points="259.38 51.98 258.6 53.27 260.69 54.59 261.52 53.33 259.38 51.98"/><path class="cls-4" d="M255.39,49.79l-.67,1.34c.72.39,1.47.75,2.18,1.16l.73-1.31C256.9,50.55,256.13,50.19,255.39,49.79Z"/><path class="cls-4" d="M251.25,47.93l-.56,1.39c.76.33,1.53.62,2.27,1l.62-1.37C252.82,48.56,252,48.26,251.25,47.93Z"/><path class="cls-3" d="M257.81,60.53a50.82,50.82,0,0,1,8.89,7.72l11.1-10.09a66,66,0,0,0-11.51-10Z"/><path class="cls-4" d="M270.17,60.31l-1.05,1.07c.6.56,1.18,1.16,1.74,1.76l1.09-1C271.37,61.49,270.79,60.88,270.17,60.31Z"/><path class="cls-4" d="M266.79,57.26l-1,1.15c.65.51,1.25,1.08,1.87,1.63l1-1.12C268.07,58.37,267.46,57.78,266.79,57.26Z"/><path class="cls-4" d="M263.2,54.49l-.87,1.22c.68.48,1.33,1,2,1.48l.92-1.19C264.56,55.5,263.89,55,263.2,54.49Z"/><path class="cls-3" d="M266.7,68.25a45.28,45.28,0,0,1,6.65,9.48l13.29-6.94a60.42,60.42,0,0,0-8.84-12.63Z"/><polygon class="cls-4" points="278.73 70.92 277.45 71.71 278.69 73.84 280 73.12 278.73 70.92"/><path class="cls-4" d="M276.17,67.15l-1.2.9c.47.67,1,1.32,1.42,2l1.24-.83C277.17,68.52,276.66,67.85,276.17,67.15Z"/><path class="cls-4" d="M273.32,63.63l-1.13,1c.54.63,1.09,1.24,1.59,1.9l1.17-.94C274.44,64.9,273.88,64.27,273.32,63.63Z"/><path class="cls-3" d="M273.35,77.73A45.08,45.08,0,0,1,275.66,83a40.23,40.23,0,0,1,1.49,5.47l14.71-2.92a54.77,54.77,0,0,0-2.07-7.58,57,57,0,0,0-3.15-7.15Z"/><path class="cls-4" d="M284.2,83.42l-1.44.4c.2.8.45,1.58.6,2.39l1.46-.33C284.67,85.05,284.41,84.24,284.2,83.42Z"/><polygon class="cls-4" points="282.77 79.1 281.37 79.64 281.81 80.78 282.19 81.95 283.62 81.49 283.22 80.28 282.77 79.1"/><path class="cls-4" d="M280.94,74.94l-1.34.67c.39.72.69,1.49,1,2.23l1.38-.6C281.65,76.48,281.35,75.68,280.94,74.94Z"/><path class="cls-3" d="M277.15,88.44a37.92,37.92,0,0,1,.56,11.31l14.93,1.4a53,53,0,0,0-.78-15.63Z"/><path class="cls-4" d="M285.91,97l-1.5,0c0,.81,0,1.64-.11,2.45l1.5.11C285.9,98.65,285.87,97.8,285.91,97Z"/><path class="cls-4" d="M285.78,92.4l-1.49.12c.09.81.09,1.63.12,2.45l1.5,0C285.88,94.09,285.88,93.24,285.78,92.4Z"/><polygon class="cls-4" points="285.23 87.89 283.76 88.15 284.11 90.59 285.6 90.41 285.23 87.89"/><path class="cls-3" d="M277.71,99.75A43.09,43.09,0,0,1,275.12,111l14.05,5.25a58.13,58.13,0,0,0,3.47-15.08Z"/><path class="cls-4" d="M283.78,110.43l-1.44-.43c-.24.78-.52,1.56-.77,2.34l1.41.5C283.24,112,283.53,111.24,283.78,110.43Z"/><path class="cls-4" d="M284.88,106l-1.47-.3c-.18.8-.31,1.61-.55,2.4l1.45.38C284.56,107.68,284.69,106.84,284.88,106Z"/><path class="cls-4" d="M285.61,101.53l-1.49-.17c-.08.82-.24,1.63-.35,2.44l1.48.25C285.37,103.21,285.53,102.38,285.61,101.53Z"/><path class="cls-3" d="M275.12,111a51.45,51.45,0,0,1-5.4,10.44l12.44,8.37a66.45,66.45,0,0,0,7-13.56Z"/><path class="cls-4" d="M278.26,122.9l-1.29-.76c-.4.72-.84,1.41-1.3,2.1l1.26.81C277.4,124.35,277.85,123.64,278.26,122.9Z"/><polygon class="cls-4" points="280.44 118.91 279.09 118.25 277.95 120.44 279.27 121.16 280.44 118.91"/><path class="cls-4" d="M282.26,114.75l-1.4-.55c-.3.77-.59,1.54-.95,2.28l1.37.61C281.65,116.33,282,115.54,282.26,114.75Z"/><path class="cls-3" d="M269.72,121.42A55,55,0,0,1,262,130.5l10.36,10.86a70.13,70.13,0,0,0,9.76-11.57Z"/><path class="cls-4" d="M270.08,133.79l-1.1-1c-.56.6-1.12,1.21-1.72,1.77l1.05,1.07C268.93,135,269.5,134.41,270.08,133.79Z"/><path class="cls-4" d="M273.07,130.37l-1.17-.94c-.5.65-1.06,1.25-1.59,1.89l1.12,1C272,131.66,272.56,131,273.07,130.37Z"/><path class="cls-4" d="M275.79,126.75l-1.23-.86c-.48.67-.95,1.35-1.45,2l1.2.91C274.82,128.13,275.3,127.44,275.79,126.75Z"/><path class="cls-3" d="M262,130.5a50.86,50.86,0,0,1-9.35,7.11l7.54,13a65.88,65.88,0,0,0,12.17-9.21Z"/><path class="cls-4" d="M259.72,142.66l-.83-1.25c-.68.47-1.37.91-2.08,1.33l.78,1.28C258.32,143.59,259,143.14,259.72,142.66Z"/><path class="cls-4" d="M263.39,140l-.93-1.17c-.63.53-1.31,1-2,1.49l.88,1.21C262.05,141,262.75,140.52,263.39,140Z"/><polygon class="cls-4" points="266.84 137.03 265.82 135.92 263.97 137.57 264.94 138.71 266.84 137.03"/><path class="cls-3" d="M252.69,137.61a32.87,32.87,0,0,1-10.13,4l2.67,14.76a47.71,47.71,0,0,0,15-5.78Z"/><path class="cls-4" d="M247.46,148.64,247,147.2a24,24,0,0,1-2.36.61l.32,1.47C245.83,149.12,246.64,148.88,247.46,148.64Z"/><path class="cls-4" d="M251.75,147.07l-.6-1.38c-.76.31-1.5.65-2.28.9l.51,1.41C250.19,147.74,251,147.39,251.75,147.07Z"/><path class="cls-4" d="M255.82,145.05l-.73-1.31c-.72.4-1.44.8-2.18,1.14l.65,1.35C254.34,145.87,255.08,145.46,255.82,145.05Z"/><path class="cls-3" d="M242.56,141.59a15.32,15.32,0,0,1-4.47.18,8.07,8.07,0,0,1-3.44-1.2L227,153.46a18.15,18.15,0,0,0,2.1,1.12c.37.18.71.36,1.1.51l1.21.45c.41.13.81.29,1.22.4l1.21.29,1.21.27,1.19.16a30.51,30.51,0,0,0,9-.31Z"/><path class="cls-4" d="M233.82,149l.48-1.42c-.36-.14-.74-.24-1.1-.41l-1.07-.52-.69,1.33,1.16.57C233,148.73,233.41,148.85,233.82,149Z"/><path class="cls-4" d="M238.37,149.87l.09-1.5a9.59,9.59,0,0,1-1.19-.12,9.18,9.18,0,0,1-1.17-.18l-.29,1.47a9.21,9.21,0,0,0,1.28.2C237.51,149.78,237.94,149.87,238.37,149.87Z"/><path class="cls-4" d="M243,149.64l-.21-1.48a21.58,21.58,0,0,1-2.41.22l.06,1.5A20,20,0,0,0,243,149.64Z"/><path class="cls-3" d="M234.65,140.57a17.26,17.26,0,0,1-3.59-2.95,25.72,25.72,0,0,1-3.1-4.16l-12.84,7.76A35.45,35.45,0,0,0,227,153.46Z"/><path class="cls-4" d="M223.08,140.57l1.2-.91c-.52-.62-.93-1.33-1.4-2l-1.26.81C222.11,139.17,222.54,139.91,223.08,140.57Z"/><path class="cls-4" d="M226.11,144l1-1.07c-.59-.56-1.13-1.16-1.66-1.77l-1.14,1C224.91,142.79,225.48,143.42,226.11,144Z"/><path class="cls-4" d="M229.64,146.92l.84-1.24c-.64-.49-1.32-.91-1.92-1.46l-1,1.15A25.46,25.46,0,0,0,229.64,146.92Z"/><path class="cls-3" d="M228,133.46a27,27,0,0,1-2.33-4.84,27.63,27.63,0,0,1-1.43-5.2L209.43,126a44.85,44.85,0,0,0,5.69,15.18Z"/><path class="cls-4" d="M217.08,128.3l1.44-.4c-.23-.78-.38-1.59-.58-2.38l-1.46.3C216.68,126.65,216.84,127.48,217.08,128.3Z"/><path class="cls-4" d="M218.56,132.62l1.39-.57c-.32-.75-.57-1.53-.87-2.29l-1.42.48C218,131,218.23,131.84,218.56,132.62Z"/><path class="cls-4" d="M220.56,136.72l1.3-.74c-.41-.71-.75-1.45-1.13-2.17l-1.36.65C219.77,135.21,220.13,136,220.56,136.72Z"/><path class="cls-3" d="M224.2,123.42l-.22-1.33-.13-1.33c-.1-.91-.12-1.88-.13-2.79a32.55,32.55,0,0,1,.43-5.46L209.37,110a46.63,46.63,0,0,0-.65,8c0,1.35.05,2.64.19,4l.2,2c.09.67.21,1.34.32,2Z"/><path class="cls-4" d="M215.81,114.7l1.49.12c.06-.82.16-1.63.26-2.44l-1.48-.21C216,113,215.87,113.86,215.81,114.7Z"/><path class="cls-4" d="M215.71,119.27l1.5,0c0-.82,0-1.64,0-2.46l-1.5,0C215.69,117.57,215.68,118.42,215.71,119.27Z"/><path class="cls-4" d="M216.12,123.8l1.49-.22c-.16-.8-.18-1.62-.28-2.43l-1.49.12C215.94,122.11,216,123,216.12,123.8Z"/><path class="cls-3" d="M224.15,112.51a21.33,21.33,0,0,1,1.36-4.79,15.66,15.66,0,0,1,1-2,11.38,11.38,0,0,1,1.25-1.63L216.69,94a26.65,26.65,0,0,0-2.85,3.73,31.26,31.26,0,0,0-2.12,4,36,36,0,0,0-2.35,8.19Z"/><path class="cls-4" d="M219.67,101.6l1.27.79a8.19,8.19,0,0,1,.67-1,11.17,11.17,0,0,1,.71-1l-1.16-1c-.29.31-.51.69-.77,1A9.53,9.53,0,0,0,219.67,101.6Z"/><path class="cls-4" d="M217.66,105.74l1.4.52c.3-.75.59-1.5,1-2.21l-1.34-.66A22.23,22.23,0,0,0,217.66,105.74Z"/><path class="cls-4" d="M216.43,110.14l1.47.3c.15-.8.36-1.58.57-2.37l-1.44-.41C216.81,108.48,216.58,109.31,216.43,110.14Z"/><path class="cls-3" d="M227.78,104.13a16.73,16.73,0,0,1,7.95-4.6l-4-14.46a31.55,31.55,0,0,0-15.06,9Z"/><polygon class="cls-4" points="230.22 92.95 230.8 94.34 231.92 93.89 233.07 93.51 232.63 92.08 231.41 92.48 230.22 92.95"/><path class="cls-4" d="M226.15,95.08l.81,1.26c.68-.43,1.38-.83,2.09-1.2l-.68-1.34C227.61,94.2,226.86,94.62,226.15,95.08Z"/><polygon class="cls-4" points="222.57 97.96 223.63 99.03 224.49 98.2 225.42 97.44 224.5 96.26 223.5 97.07 222.57 97.96"/><path class="cls-3" d="M235.73,99.53a20.75,20.75,0,0,1,9.74-.38l3.35-14.62a33,33,0,0,0-8.7-.76,37,37,0,0,0-8.37,1.3Z"/><polygon class="cls-4" points="243.71 90.79 243.6 92.28 244.8 92.4 245.99 92.59 246.26 91.11 244.99 90.91 243.71 90.79"/><path class="cls-4" d="M239.12,90.81l.13,1.5c.81-.09,1.62-.09,2.42-.11V90.7C240.83,90.72,240,90.73,239.12,90.81Z"/><path class="cls-4" d="M234.61,91.52,235,93c.79-.17,1.58-.35,2.39-.45L237.12,91C236.28,91.15,235.45,91.35,234.61,91.52Z"/><path class="cls-3" d="M245.47,99.15a19,19,0,0,1,8.31,4.72l10.13-11.05a33.64,33.64,0,0,0-15.09-8.29Z"/><path class="cls-4" d="M256.45,95.68l-.89,1.21c.66.48,1.28,1,1.91,1.52l1-1.14C257.79,96.73,257.14,96.18,256.45,95.68Z"/><path class="cls-4" d="M252.54,93.27l-.68,1.34c.36.19.72.36,1.07.57l1,.63.8-1.27C254.05,94.09,253.31,93.65,252.54,93.27Z"/><path class="cls-4" d="M248.28,91.58,247.87,93a20.37,20.37,0,0,1,2.27.8l.57-1.39A23.31,23.31,0,0,0,248.28,91.58Z"/><path class="cls-3" d="M253.78,103.87a29.18,29.18,0,0,1,6.4,8.58l13.45-6.65a44.16,44.16,0,0,0-9.72-13Z"/><path class="cls-4" d="M265.65,105.78l-1.28.79c.46.68.82,1.41,1.23,2.12l1.33-.7C266.5,107.25,266.12,106.49,265.65,105.78Z"/><path class="cls-4" d="M263,102.05l-1.17.93c.51.63,1,1.29,1.46,2l1.23-.85C264.06,103.39,263.56,102.7,263,102.05Z"/><path class="cls-4" d="M260,98.66l-1,1.08c.56.58,1.16,1.14,1.68,1.77l1.12-1C261.17,99.86,260.56,99.27,260,98.66Z"/><path class="cls-3" d="M260.18,112.45c.43.82.72,1.57,1.1,2.49l1.2,3.12c.79,2.08,1.58,4.15,2.32,6.22l14.11-5.11c-.79-2.18-1.6-4.32-2.42-6.47l-1.23-3.19c-.47-1.17-1-2.52-1.63-3.71Z"/><polygon class="cls-4" points="271.14 118.24 269.73 118.77 270.6 121.12 272.01 120.6 271.14 118.24"/><polygon class="cls-4" points="269.54 114.02 268.13 114.56 269.03 116.91 270.43 116.37 269.54 114.02"/><path class="cls-4" d="M267.84,109.83l-1.37.62c.33.76.65,1.49.95,2.27l1.4-.55C268.52,111.39,268.17,110.61,267.84,109.83Z"/><path class="cls-3" d="M264.8,124.28c1.5,4.13,2.9,8.25,3.93,12.2l14.52-3.74c-1.25-4.78-2.77-9.21-4.34-13.57Z"/><path class="cls-4" d="M275.55,131.08l-1.43.43c.22.8.47,1.59.67,2.39l1.45-.39C276,132.69,275.78,131.89,275.55,131.08Z"/><polygon class="cls-4" points="274.18 126.77 272.76 127.24 273.53 129.62 274.96 129.16 274.18 126.77"/><polygon class="cls-4" points="272.7 122.51 271.29 123.02 272.12 125.38 273.54 124.89 272.7 122.51"/><path class="cls-3" d="M268.73,136.48a43.72,43.72,0,0,1,1.11,5.64,16.67,16.67,0,0,1,0,4.7l14.82,2.35a32,32,0,0,0,.12-8.78,55.17,55.17,0,0,0-1.48-7.65Z"/><path class="cls-4" d="M278,144.5h-1.5c0,.8-.07,1.6-.12,2.4l1.49.17C277.93,146.21,278,145.36,278,144.5Z"/><path class="cls-4" d="M277.64,139.93l-1.48.23c.13.81.22,1.62.28,2.42l1.5-.11C277.87,141.62,277.77,140.77,277.64,139.93Z"/><path class="cls-4" d="M276.75,135.48l-1.46.36c.21.8.37,1.61.54,2.41l1.47-.29C277.13,137.13,277,136.3,276.75,135.48Z"/><path class="cls-3" d="M269.79,146.82a20.3,20.3,0,0,1-4.17,8.92l12.06,8.92a42.18,42.18,0,0,0,4.27-7,31.08,31.08,0,0,0,2.66-8.48Z"/><path class="cls-4" d="M274.07,157.57l-1.27-.79c-.42.7-.89,1.38-1.35,2.05l1.22.87C273.16,159,273.64,158.3,274.07,157.57Z"/><path class="cls-4" d="M276.18,153.5l-1.39-.58c-.3.74-.66,1.47-1,2.19l1.32.7A24.42,24.42,0,0,0,276.18,153.5Z"/><path class="cls-4" d="M277.55,149.12l-1.47-.31a23.57,23.57,0,0,1-.63,2.33l1.43.46A23.9,23.9,0,0,0,277.55,149.12Z"/><path class="cls-3" d="M265.62,155.74c-2.27,3.07-5.26,6.2-8.38,9.61l11.07,10.12a139.57,139.57,0,0,0,9.37-10.81Z"/><rect class="cls-2" x="262.88" y="167.85" width="2.51" height="1.5" transform="translate(-38.79 248.81) rotate(-47.38)"/><polygon class="cls-4" points="268.57 164.83 267.44 163.84 265.78 165.7 266.89 166.71 268.57 164.83"/><path class="cls-4" d="M271.46,161.34l-1.19-.91c-.52.64-1,1.29-1.56,1.92l1.15,1C270.41,162.67,270.93,162,271.46,161.34Z"/><path class="cls-3" d="M257.24,165.35A81.94,81.94,0,0,0,248,177l12.71,8a67.3,67.3,0,0,1,7.6-9.51Z"/><path class="cls-4" d="M256.76,178.4l-1.21-.88c-.5.69-1,1.38-1.46,2.1l1.25.83C255.79,179.75,256.27,179.07,256.76,178.4Z"/><path class="cls-4" d="M259.53,174.89l-1.15-1c-.54.65-1.09,1.3-1.61,2l1.18.93C258.46,176.17,259,175.53,259.53,174.89Z"/><polygon class="cls-4" points="262.48 171.53 261.36 170.52 259.68 172.41 260.81 173.4 262.48 171.53"/><path class="cls-3" d="M248,177a42.1,42.1,0,0,0-6,15.25l14.79,2.51a26.84,26.84,0,0,1,3.88-9.79Z"/><path class="cls-4" d="M250.74,190.24l-1.45-.42c-.23.84-.45,1.67-.61,2.52l1.47.3A24.71,24.71,0,0,1,250.74,190.24Z"/><path class="cls-4" d="M252.24,186.07l-1.38-.61c-.31.81-.68,1.58-.94,2.41l1.41.5C251.58,187.58,251.94,186.84,252.24,186.07Z"/><path class="cls-4" d="M254.28,182.14l-1.29-.76c-.46.72-.83,1.5-1.25,2.25l1.33.68C253.48,183.59,253.83,182.84,254.28,182.14Z"/><path class="cls-3" d="M242,192.26a41,41,0,0,0-.56,8.33,28.26,28.26,0,0,0,1.86,9l14-5.49a13.1,13.1,0,0,1-.84-4.19,26.8,26.8,0,0,1,.37-5.15Z"/><path class="cls-4" d="M249.87,203.38l-1.47.29c.09.43.16.86.27,1.29l.39,1.26,1.42-.47-.36-1.17C250,204.19,250,203.78,249.87,203.38Z"/><path class="cls-4" d="M249.48,199H248a22.8,22.8,0,0,0,.12,2.61l1.49-.15A20,20,0,0,1,249.48,199Z"/><path class="cls-4" d="M249.82,194.6l-1.48-.21a24.33,24.33,0,0,0-.28,2.57l1.5.1A22.81,22.81,0,0,1,249.82,194.6Z"/><path class="cls-3" d="M243.34,209.6a28.05,28.05,0,0,0,4.76,7.86,49.51,49.51,0,0,0,5.72,5.58l9.7-11.44a35.22,35.22,0,0,1-4-3.84,12.73,12.73,0,0,1-2.24-3.65Z"/><path class="cls-4" d="M256.43,214.59l-1,1.08c.62.58,1.24,1.17,1.89,1.72l1-1.13C257.63,215.72,257,215.15,256.43,214.59Z"/><path class="cls-4" d="M253.46,211.31l-1.19.91c.52.71,1.11,1.34,1.68,2l1.1-1C254.51,212.57,253.94,212,253.46,211.31Z"/><path class="cls-4" d="M251.19,207.58l-1.36.63c.17.4.4.78.6,1.17a9.15,9.15,0,0,0,.66,1.14l1.27-.8a8.44,8.44,0,0,1-.61-1.05C251.56,208.3,251.35,208,251.19,207.58Z"/><path class="cls-3" d="M253.82,223a122.18,122.18,0,0,1,9.67,8.37L274.28,221a131.88,131.88,0,0,0-10.76-9.39Z"/><path class="cls-4" d="M266.71,223.37l-1,1.11c.62.55,1.22,1.12,1.8,1.7l1.05-1.07C268,224.51,267.34,223.93,266.71,223.37Z"/><path class="cls-4" d="M263.27,220.41l-.95,1.16c.64.54,1.29,1.06,1.91,1.61l1-1.14C264.57,221.48,263.92,221,263.27,220.41Z"/><polygon class="cls-4" points="259.8 217.57 258.84 218.72 260.79 220.32 261.74 219.16 259.8 217.57"/><path class="cls-3" d="M263.49,231.41a28.67,28.67,0,0,1,6,8.9l13.8-5.86a43.83,43.83,0,0,0-9-13.46Z"/><path class="cls-4" d="M275.32,234l-1.32.72c.42.7.73,1.46,1.1,2.18l1.36-.62C276.08,235.48,275.75,234.69,275.32,234Z"/><path class="cls-4" d="M272.87,230.1l-1.21.88c.5.65.91,1.35,1.37,2l1.27-.79C273.82,231.51,273.39,230.77,272.87,230.1Z"/><path class="cls-4" d="M270,226.59l-1.11,1c.58.59,1.08,1.24,1.61,1.85l1.17-.94C271.09,227.87,270.57,227.19,270,226.59Z"/><path class="cls-3" d="M269.48,240.31a37.68,37.68,0,0,1,2.62,10.9L287,249.76a52.28,52.28,0,0,0-3.75-15.31Z"/><path class="cls-4" d="M279.63,246.92l-1.48.24c.14.81.21,1.63.33,2.44l1.49-.17C279.85,248.59,279.77,247.75,279.63,246.92Z"/><path class="cls-4" d="M278.67,242.46l-1.45.39c.19.79.44,1.57.57,2.39l1.47-.31C279.12,244.1,278.86,243.28,278.67,242.46Z"/><path class="cls-4" d="M277.26,238.14l-1.4.54c.33.75.56,1.54.82,2.31l1.43-.45C277.84,239.73,277.6,238.91,277.26,238.14Z"/><polygon class="cls-5" points="269.81 249.22 279.34 255.15 289.32 250.56 278.31 279.24 269.81 249.22"/></g></g></g></g></g></svg>